<?xml version="1.0" encoding="utf-8"?>
<!-- Generator: Adobe Illustrator 22.1.0, SVG Export Plug-In . SVG Version: 6.00 Build 0)  -->
<svg version="1.1" id="Layer_1" xmlns="http://www.w3.org/2000/svg" xmlns:xlink="http://www.w3.org/1999/xlink" x="0px" y="0px"
	 viewBox="0 0 230 60" style="enable-background:new 0 0 230 60;" xml:space="preserve">
<style type="text/css">
	.st0{fill:#59C7DB;}
	.st1{fill:#E6E7E8;}
	.st2{fill:#EC1C24;}
	.st3{fill:#003D68;}
	.st4{fill:#52C5D7;}
	.st5{fill:#FFFFFF;}
</style>
<g>
	<g>
		<g>
			<path class="st0" d="M119.6,35.6c-0.5,1-1,2.1-1.5,3.3c-0.6,1.2-1.2,2.4-1.8,3.6c-0.7,1.2-1.3,2.3-2.1,3.4
				c-0.7,1.1-1.5,2-2.3,2.8c-0.8,0.8-1.6,1.4-2.5,1.8c-0.9,0.4-1.7,0.6-2.6,0.4c-1-0.1-1.7-0.5-2.3-1.1c-0.5-0.6-0.9-1.3-1.1-2.1
				c-0.2-0.8-0.3-1.7-0.2-2.6c0.1-0.9,0.2-1.8,0.3-2.6c-0.5,0.7-1,1.3-1.6,2.1c-0.6,0.7-1.3,1.4-2,2c-0.5,0.4-1.1,0.7-1.7,0.9
				c-0.7,0.2-1.3,0.3-2,0.3c-0.7,0-1.2-0.2-1.8-0.5c-0.5-0.3-0.9-0.8-1.1-1.4c-0.2-0.7-0.3-1.5-0.3-2.5c0-1,0.2-2,0.5-3.1
				c0.3-1.1,0.6-2.2,1.1-3.2c0.5-1.1,1-2.1,1.6-3.1c-0.4,0.2-0.8,0.4-1.3,0.6c-0.4,0.2-1,0.4-1.6,0.6c-1.2,0.3-2.4,0.3-3.7,0
				c-1.2-0.3-2.3-1-3.2-2c-0.7,0.1-1.4,0.2-2.1,0.4c-0.7,0.1-1.4,0.3-2.2,0.4c-1,0.1-2.1,0.3-3.2,0.4c-1.2,0.1-2.3,0.2-3.5,0.4
				c-1.2,0.2-2.3,0.4-3.4,0.8c-1.1,0.3-2.1,0.8-3,1.5c-0.5,0.4-0.9,0.8-1.4,1.3c-0.4,0.5-0.8,1-1.1,1.6c-0.3,0.6-0.5,1.2-0.6,1.8
				c-0.1,0.6-0.1,1.3,0.1,2c0.1,0.4,0.4,0.8,0.6,1.2c0.3,0.4,0.6,0.8,1,1.1c0.4,0.3,0.8,0.5,1.2,0.7c0.5,0.1,0.9,0.1,1.4-0.1
				c0.2-0.1,0.4-0.2,0.7-0.4c0.2-0.2,0.4-0.4,0.6-0.6c0.1-0.2,0.2-0.5,0.3-0.7c0-0.3-0.1-0.5-0.3-0.8c-0.3-0.3-0.5-0.5-0.7-0.4
				c-0.2,0-0.4,0-0.7,0c-0.3,0.2-0.6,0.3-0.9,0.3c-0.3,0-0.6-0.2-0.8-0.4c-0.2-0.3-0.3-0.5-0.2-0.8c0-0.3,0.2-0.5,0.5-0.7
				c0.4-0.3,0.8-0.3,1.2-0.2c0.5,0.2,0.9,0.3,1.2,0.5c0.5,0.3,0.9,0.6,1.2,1.1c0.3,0.4,0.5,0.8,0.5,1.2c0,0.4,0,0.8-0.2,1.1
				c-0.2,0.4-0.4,0.7-0.7,1c-0.3,0.3-0.7,0.6-1.1,0.7c-0.6,0.3-1.2,0.5-1.8,0.3c-0.6-0.1-1.2-0.3-1.7-0.7c-0.5-0.4-1-0.8-1.4-1.4
				c-0.4-0.6-0.7-1.1-0.8-1.7C65,43.2,65,42.5,65,41.8c0.1-0.7,0.3-1.4,0.6-2.1c0.3-0.7,0.7-1.3,1.2-1.9c0.5-0.6,1-1.1,1.6-1.6
				c0.9-0.7,2-1.2,3.1-1.6c1.1-0.4,2.2-0.6,3.4-0.8c1.2-0.2,2.4-0.3,3.6-0.4c1.2-0.1,2.4-0.2,3.5-0.4c0.6-0.1,1.3-0.2,1.9-0.3
				c0.7-0.1,1.3-0.2,2-0.4c-0.1-0.3-0.2-0.6-0.3-0.9c0-0.3,0-0.7,0-1c0-0.3,0.2-0.7,0.3-1c0.2-0.3,0.4-0.6,0.6-0.8
				c0.2-0.2,0.5-0.3,0.8-0.4c0.3-0.1,0.6-0.1,0.9-0.1c0.3,0,0.6,0.1,0.8,0.3c0.2,0.2,0.4,0.5,0.5,0.8c0.1,0.4,0.1,0.8-0.1,1.2
				c-0.1,0.3-0.3,0.7-0.5,1c-0.2,0.3-0.5,0.5-0.8,0.8c-0.3,0.2-0.7,0.4-1,0.6c0.8,0.8,1.7,1.3,2.8,1.5c1.1,0.2,2.2,0.1,3.3-0.2
				c1-0.2,2-0.7,2.8-1.3c0.9-0.6,1.7-1.3,2.5-2.1c0.9-0.8,1.9-1.4,2.8-1.6c1-0.2,1.9,0,2.8,0.8c0.2,0.1,0.3,0.3,0.3,0.5
				c0.1,0.2,0.1,0.3,0,0.5c-0.1,0.1-0.2,0.2-0.3,0.3c-0.2,0-0.4,0-0.7-0.2c-0.1-0.1-0.2-0.2-0.4-0.3c-0.2-0.1-0.5,0-0.8,0.1
				c-0.4,0.2-0.9,0.6-1.4,1.2c-0.5,0.6-1,1.3-1.5,2.1c-0.5,0.8-1,1.7-1.5,2.6c-0.5,1-1,1.9-1.3,2.9c-0.4,1-0.7,1.9-0.9,2.7
				c-0.2,0.9-0.4,1.6-0.4,2.3c0,0.7,0,1.1,0.2,1.4c0.2,0.3,0.4,0.5,0.6,0.5c0.3,0.1,0.5,0.1,0.8,0c0.3-0.1,0.5-0.1,0.6-0.2
				c0.6-0.3,1.2-0.7,1.7-1.2c0.6-0.5,1.1-1.1,1.6-1.7c0.5-0.6,1-1.3,1.4-1.9c0.4-0.7,0.8-1.3,1.2-1.9c0.3-0.6,0.7-1.2,0.9-1.7
				c0.3-0.5,0.4-0.9,0.6-1.1l2.6-7.8c0.1-0.2,0.3-0.4,0.6-0.6c0.2-0.1,0.4-0.3,0.8-0.4c0.3-0.1,0.7-0.1,1.1,0
				c0.4,0.1,0.7,0.3,0.9,0.5c0.2,0.2,0.3,0.5,0.3,0.7c0,0.3,0,0.6-0.1,0.9c-0.5,1.6-1,3.1-1.4,4.4c-0.4,1.3-0.8,2.4-1.1,3.4
				c-0.3,1-0.6,1.8-0.8,2.6c-0.2,0.7-0.4,1.4-0.6,1.9c0,0.2-0.1,0.5-0.2,1c-0.1,0.5-0.2,1-0.2,1.5c0,0.6,0,1.1,0.1,1.7
				c0.1,0.6,0.3,1,0.7,1.4c0.3,0.2,0.5,0.3,0.8,0.4c0.3,0.1,0.6,0.1,0.9,0.1c0.3,0,0.7-0.2,1.1-0.4c0.5-0.3,0.9-0.7,1.4-1.2
				c0.5-0.5,0.9-1.1,1.4-1.8c0.5-0.7,0.9-1.3,1.3-2.1c0.4-0.7,0.8-1.4,1.2-2.1c0.5-0.8,0.9-1.7,1.3-2.6c0.4-0.9,0.8-1.8,1.2-2.8
				L119.6,35.6z M87.2,29.4c-0.4,0.3-0.6,0.7-0.6,1.3c0,0.6,0,1,0.3,1.4v0c0.5-0.1,0.9-0.3,1.4-0.6c0.4-0.3,0.7-0.7,0.8-1.3
				c0.1-0.3,0.1-0.5,0-0.7c-0.1-0.2-0.2-0.3-0.4-0.4c-0.2-0.1-0.4-0.1-0.6-0.1C87.7,29.1,87.4,29.2,87.2,29.4z"/>
			<path class="st0" d="M139.5,35.6c-1.1,2.5-2.1,4.6-3.1,6.2c-1,1.6-1.8,2.9-2.7,3.9c-0.8,1-1.6,1.7-2.3,2.1
				c-0.7,0.4-1.3,0.6-1.9,0.6c-0.8,0-1.4-0.1-2-0.4c-0.6-0.3-1-0.7-1.4-1.1c-0.4-0.5-0.7-1-0.9-1.6c-0.2-0.6-0.4-1.2-0.5-1.9
				c-0.3-1.5-0.3-3.2-0.1-5.1c0.1-1.3,0.4-2.6,0.8-4.1c0.4-1.5,0.9-3.1,1.6-4.8c0.2-0.6,0.4-1.2,0.4-1.6c0-0.4,0-0.8-0.2-1.1
				c-0.2-0.3-0.5-0.4-1-0.4c-0.5,0.1-1,0.2-1.6,0.3c-0.5,0.1-1,0.1-1.6,0.2c-0.5,1.4-1.1,2.9-1.8,4.6c-0.7,1.7-1.6,3.7-2.6,5.8
				l-1-0.3c0.5-1,0.9-2.1,1.4-3.2c0.4-1,0.8-2.1,1.3-3.3c0.5-1.2,0.9-2.5,1.4-3.8c-0.8-0.1-1.5-0.3-2.2-0.6
				c-0.7-0.3-1.3-0.7-1.7-1.2c-0.5-0.5-0.8-1.2-1-1.9c-0.2-0.7-0.2-1.6,0-2.5c0.1-0.7,0.4-1.4,0.7-2.1c0.3-0.7,0.7-1.3,1.3-1.8
				c0.5-0.5,1.1-0.9,1.8-1.1c0.7-0.2,1.5-0.3,2.5-0.1c0.4,0.1,0.8,0.3,1,0.7c0.3,0.3,0.4,0.7,0.5,1.1c0.1,0.4,0.2,0.9,0.2,1.4
				c0,0.5,0,1-0.1,1.5c-0.1,0.6-0.2,1.3-0.4,2.1c-0.2,0.8-0.4,1.7-0.8,2.8c0.8,0.1,1.7,0.1,2.7-0.2c0.4-0.1,0.8-0.2,1.2-0.3
				c0.4-0.1,0.8-0.3,1.2-0.4c0.4-0.1,0.8-0.2,1.2-0.2c0.4,0,0.8,0,1.1,0c0.6,0.2,0.9,0.5,1,1.1c0.1,0.5,0.1,1.2-0.1,2.1
				c-0.2,0.8-0.4,1.8-0.8,2.8c-0.3,1-0.7,2.1-1.1,3.3v0c-0.1,0.2-0.2,0.7-0.4,1.5c-0.2,0.8-0.4,1.7-0.6,2.8
				c-0.2,1.1-0.3,2.2-0.3,3.4c0,1.2,0.1,2.3,0.3,3.3c0.1,0.5,0.3,0.9,0.6,1.3c0.3,0.3,0.6,0.5,1,0.6c0.5,0,0.9-0.1,1.5-0.6
				c0.5-0.4,1-1,1.5-1.7c0.5-0.7,1-1.4,1.5-2.3c0.5-0.8,0.9-1.6,1.3-2.4c0.2-0.5,0.5-0.9,0.7-1.4c0.2-0.4,0.4-0.8,0.5-1.1
				c0.2-0.4,0.3-0.7,0.4-1H139.5z M122.6,24.6c0.6-1.8,1-3.4,1.3-4.8c0-0.1,0.1-0.4,0.1-0.8c0-0.4,0-0.8-0.1-1.1
				c-0.1-0.4-0.2-0.7-0.4-1c-0.2-0.3-0.6-0.4-1-0.4c-0.8,0.2-1.4,0.7-1.8,1.5c-0.4,0.8-0.5,1.6-0.5,2.5c0,0.9,0.3,1.7,0.7,2.5
				C121.3,23.8,121.9,24.3,122.6,24.6z"/>
			<path class="st0" d="M151.1,42.6c0.5-0.4,1-0.9,1.5-1.4c0.5-0.6,0.9-1.2,1.3-1.8c0.4-0.6,0.7-1.3,1-1.9c0.3-0.6,0.5-1.2,0.7-1.8
				h1.1c-0.5,1.3-1.1,2.6-1.8,3.9c-0.7,1.3-1.7,2.4-2.8,3.4c-0.2,0.1-0.3,0.3-0.5,0.4c-0.2,0.1-0.3,0.2-0.5,0.3
				c-1.5,0.8-3,0.9-4.6,0.2c-0.2,0.5-0.5,1-0.8,1.6c-0.3,0.6-0.7,1.3-1.1,1.9c-0.4,0.6-0.9,1.2-1.4,1.7c-0.5,0.5-1,0.9-1.6,1.2
				c-0.6,0.3-1.2,0.4-1.8,0.4c-0.6,0-1.3-0.3-1.9-0.8c-0.7-0.7-1-1.6-1.2-2.8c-0.1-1.2-0.1-2.4,0-3.7c0.1-1.3,0.4-2.6,0.7-3.9
				c0.3-1.3,0.6-2.4,0.8-3.3c0.3-1.1,0.6-2.4,1.1-3.9c0.4-1.5,0.9-3.1,1.5-4.7c0.6-1.7,1.3-3.4,2-5.1c0.8-1.8,1.6-3.4,2.5-5.1
				c0.9-1.6,2-3.1,3.1-4.5c1.1-1.4,2.4-2.5,3.7-3.5c0.4-0.3,0.9-0.6,1.4-0.8c0.5-0.2,1.1-0.4,1.6-0.4c0.5,0,1,0.1,1.4,0.4
				c0.4,0.3,0.7,0.8,0.9,1.5c0.1,0.7,0,1.7-0.5,2.9c-0.5,1.2-1.1,2.5-1.9,3.9c-0.8,1.4-1.8,2.8-2.8,4.3c-1.1,1.5-2.1,2.9-3.2,4.2
				c-1,1.3-2,2.5-2.9,3.5c-0.9,1-1.6,1.8-2.1,2.3c-0.5,1.5-0.9,2.9-1.3,4.1c-0.4,1.2-0.8,2.4-1.1,3.5c-0.3,1.1-0.6,2.1-0.8,3.1
				c-0.2,1-0.4,2-0.6,3c0,0.1-0.1,0.4-0.1,0.8c0,0.4-0.1,0.8,0,1.2c0,0.4,0.1,0.7,0.2,1c0.1,0.3,0.3,0.4,0.7,0.3
				c0.4-0.1,0.8-0.5,1.2-0.9c0.4-0.5,0.7-1,1.1-1.6c0.3-0.6,0.6-1.2,0.9-1.8c0.3-0.6,0.5-1.1,0.7-1.5c-0.3-0.4-0.5-0.8-0.8-1.3
				c-0.2-0.5-0.4-1.1-0.5-1.8c-0.1-0.6-0.1-1.2-0.1-1.9c0-0.6,0.1-1.2,0.1-1.6c0.1-0.6,0.2-1.1,0.3-1.6c0.1-0.4,0.3-0.8,0.5-1.3
				c0.2-0.5,0.4-0.9,0.7-1.3c0.3-0.4,0.6-0.7,0.9-1c0.4-0.3,0.8-0.4,1.3-0.4c0.5,0.1,0.9,0.3,1.2,0.7c0.3,0.4,0.5,0.8,0.6,1.4
				c0.1,0.6,0.1,1.2,0.1,1.9c0,0.7-0.1,1.4-0.3,2.1c-0.3,1.7-0.8,3.6-1.6,5.6c0,0.1-0.1,0.3-0.2,0.5c-0.1,0.2-0.1,0.3-0.2,0.5
				c0.4,0.1,0.8,0.3,1.1,0.3c0.3,0.1,0.7,0.1,1,0.1c0.3,0,0.7-0.1,1-0.2C150.3,43.1,150.7,42.9,151.1,42.6z M145.4,41.1
				c0-0.1,0.1-0.3,0.2-0.8c0.1-0.5,0.3-1.1,0.4-1.7c0.2-0.7,0.3-1.4,0.5-2.1c0.1-0.7,0.2-1.4,0.3-2c0-0.6,0-1-0.1-1.3
				c-0.1-0.3-0.3-0.4-0.6-0.2c-0.5,0.3-0.8,0.8-1,1.5c-0.2,0.7-0.3,1.5-0.3,2.4c0,0.9,0,1.7,0.2,2.5C145,40.2,145.2,40.7,145.4,41.1
				z M154.7,10.4c-0.8,0.4-1.6,1.1-2.4,2c-0.7,0.9-1.4,1.9-2,3.1c-0.6,1.2-1.2,2.4-1.7,3.7c-0.5,1.3-1,2.5-1.4,3.7
				c-0.4,1.2-0.8,2.3-1.2,3.2c-0.3,1-0.6,1.7-0.9,2.2c0.7-0.9,1.6-2.1,2.7-3.5c1.1-1.4,2.2-2.9,3.3-4.5c1.1-1.6,2.1-3.2,3-4.8
				c0.9-1.6,1.5-3,1.7-4.3c0-0.5-0.1-0.7-0.4-0.8C155.2,10.2,155,10.2,154.7,10.4z"/>
			<path class="st0" d="M173.7,35.6c-0.6,1.3-1.2,2.6-1.9,4c-0.6,1.2-1.3,2.4-2.1,3.7c-0.8,1.3-1.7,2.6-2.7,3.7
				c-1,1.2-2.1,2.1-3.3,2.9c-1.2,0.8-2.4,1.1-3.7,1.1c-0.8-0.1-1.6-0.3-2.4-0.6c-0.8-0.3-1.4-0.8-2-1.4c-0.6-0.6-1.1-1.2-1.5-2
				c-0.4-0.8-0.6-1.6-0.7-2.5c-0.1-1.3-0.1-2.7,0.2-4.2c0.3-1.5,0.7-2.9,1.4-4.3c0.6-1.4,1.5-2.7,2.5-3.8c1-1.1,2.2-2,3.5-2.6
				c0.8-0.4,1.6-0.5,2.4-0.5c0.8,0,1.4,0.2,2,0.6c0.5,0.4,0.9,0.9,1.2,1.6c0.2,0.7,0.3,1.6,0,2.6c-0.3,1.2-0.8,2.2-1.5,3
				c-0.7,0.8-1.5,1.4-2.3,1.8c-0.8,0.4-1.7,0.7-2.5,0.8c-0.8,0.1-1.5,0.1-2.1-0.1c-0.2-0.1-0.2-0.2-0.1-0.3c0.1-0.1,0.2-0.2,0.3-0.2
				c0.2,0,0.4,0,0.8,0c0.3,0,0.7-0.1,1.2-0.2c0.4-0.1,0.9-0.3,1.3-0.7c0.4-0.3,0.8-0.7,1.2-1.2c0.4-0.4,0.7-0.9,0.9-1.4
				c0.2-0.5,0.4-1,0.4-1.4c0-0.4,0-0.8-0.2-1.1c-0.2-0.3-0.5-0.5-1-0.5c-0.9,0.2-1.7,0.7-2.4,1.4c-0.8,0.8-1.4,1.7-2,2.7
				c-0.6,1.1-1,2.2-1.3,3.4c-0.3,1.2-0.5,2.4-0.4,3.6c0,1.1,0.3,2.2,0.7,3.1c0.4,0.9,1.1,1.6,2,2.1c0.2,0.1,0.5,0.2,0.9,0.3
				c0.4,0.1,0.9,0.1,1.6,0c0.6-0.1,1.3-0.4,2.1-0.8c0.8-0.4,1.7-1.2,2.6-2.2c0.9-1,1.9-2.4,2.9-4c1-1.7,2.1-3.8,3.2-6.4H173.7z"/>
			<path class="st0" d="M224.4,19.5c0.9-0.4,1.7-0.4,2.5-0.1c0.8,0.3,1.4,0.9,1.9,1.6c0.5,0.7,0.9,1.6,1.1,2.5
				c0.2,1,0.2,1.8-0.1,2.6c-0.3,1-0.8,1.9-1.4,2.7c-0.7,0.7-1.4,1.4-2.3,1.9c-0.9,0.5-1.8,0.9-2.8,1.2c-1,0.3-2,0.5-3,0.6
				c-1.9,0.2-3.9,0.4-5.8,0.5c-1.9,0.1-3.9,0.3-6,0.5c0.2,0.6,0.2,1.3,0.1,2c-0.1,0.7-0.5,1.2-1,1.6c-0.2,0.2-0.5,0.3-0.8,0.4
				c-0.3,0.1-0.6,0.1-1,0c-0.3-0.1-0.6-0.2-0.8-0.4c-0.2-0.2-0.4-0.5-0.4-0.8c-0.1-0.8,0.1-1.5,0.6-2.1c0.6-0.6,1.2-1,2-1.2
				c-0.8-1-1.8-1.5-2.9-1.8c-1.1-0.2-2.2-0.1-3.3,0.2c-1.1,0.4-2.1,1-3.1,1.8c-0.9,0.8-1.6,1.8-2.1,2.9c-0.5,1-1,2.1-1.5,3.3
				c-0.6,1.2-1.2,2.3-1.8,3.4c-0.7,1.1-1.3,2.2-2.1,3.3c-0.7,1-1.5,1.9-2.3,2.7c-0.8,0.7-1.6,1.3-2.4,1.7c-0.8,0.4-1.7,0.5-2.6,0.4
				c-0.6-0.1-1.2-0.3-1.8-0.7c-0.6-0.3-1-0.8-1.4-1.4c-0.4-0.7-0.5-1.6-0.5-2.7c0-1,0.1-2,0.3-3c0.2-1,0.4-1.8,0.6-2.5
				c0.2-0.7,0.3-1.2,0.4-1.3v0l4.1-11.8c0.1-0.3,0.1-0.5,0-0.6c-0.1-0.1-0.2-0.1-0.3-0.1c-0.2,0-0.3,0.1-0.5,0.2
				c-0.2,0.1-0.3,0.2-0.4,0.4c-0.1,0.1-0.2,0.2-0.3,0.4c-0.1,0.1-0.2,0.3-0.4,0.5c-0.2,0.2-0.3,0.5-0.6,0.9
				c-0.2,0.3-0.5,0.8-0.8,1.4c-1.8,2.9-3.3,5.4-4.6,7.3c-1.3,2-2.3,3.5-3.2,4.7c-0.3,0.4-0.6,0.7-0.9,0.9c-0.3,0.2-0.7,0.2-1.2,0.1
				c-0.3-0.2-0.5-0.5-0.7-0.8c-0.2-0.3-0.3-0.6-0.3-1c0-0.3-0.1-0.6-0.1-0.8c0-0.3,0-0.5,0.1-0.7c0-0.3,0.1-0.5,0.1-0.7
				c0.3-1,0.6-1.9,1-2.9c0.3-0.8,0.6-1.8,0.9-2.8c0.3-1,0.7-2,1-2.9c0.1-0.3,0.3-0.5,0.5-0.6c0.1,0,0.1-0.1,0.2-0.1
				c0.1,0,0.2-0.1,0.4-0.1c0.2,0,0.5,0,0.8,0c0.3,0,0.8,0,1.4,0c0.2,0,0.3,0.1,0.3,0.2c0,0.2,0.1,0.3,0,0.5c0,0.2-0.1,0.4-0.1,0.6
				c0,0.2-0.1,0.3-0.1,0.4l-1.8,5.2c0,0.2,0,0.3,0.1,0.2c0,0,0,0,0.1-0.1c0,0,0.1-0.2,0.3-0.4c0.1-0.2,0.4-0.6,0.7-1
				c0.3-0.5,0.7-1.1,1.3-1.9c0.6-0.8,1.3-1.9,2.1-3.1c0.8-1.3,1.9-2.8,3.1-4.7c0.3-0.5,0.8-0.9,1.3-1.3c0.5-0.4,1-0.6,1.6-0.7
				c0.5-0.1,1-0.1,1.6,0.1c0.5,0.2,0.9,0.5,1.3,1c0.2,0.4,0.3,0.8,0.3,1.3c0,0.4-0.1,0.9-0.2,1.4c-0.7,2.1-1.3,3.9-1.8,5.5
				c-0.5,1.6-1,3-1.3,4.2c-0.4,1.2-0.7,2.2-1,3.1c-0.3,0.9-0.5,1.6-0.7,2.2c0,0.2-0.1,0.5-0.2,1c-0.1,0.5-0.2,1-0.2,1.5
				c0,0.6,0,1.1,0.1,1.7c0.1,0.6,0.3,1,0.7,1.4c0.9,0.4,1.8,0.4,2.5,0.1c0.8-0.4,1.5-0.9,2.2-1.7c0.7-0.8,1.3-1.7,1.9-2.7
				c0.6-1,1.1-1.9,1.5-2.8c0.5-0.8,0.9-1.7,1.3-2.6c0.4-0.9,0.8-1.8,1.2-2.8c0.3-0.8,0.8-1.5,1.4-2.2c0.6-0.7,1.3-1.3,2.1-1.8
				c0.8-0.5,1.6-0.9,2.5-1.1c0.9-0.3,1.8-0.4,2.6-0.3c0.9,0,1.7,0.3,2.5,0.7c0.8,0.4,1.5,1.1,2.1,1.9c1-0.2,2-0.3,3-0.4
				c1-0.1,2-0.2,3-0.2c1-0.1,2-0.1,3.1-0.2c1-0.1,2.1-0.2,3.1-0.3c0.9-0.1,1.8-0.3,2.7-0.6c0.9-0.3,1.8-0.6,2.6-1.1
				c0.8-0.5,1.5-1,2.1-1.7c0.6-0.7,1.1-1.5,1.4-2.5c0.1-0.5,0.2-1.2,0-1.9c-0.1-0.7-0.4-1.4-0.7-2c-0.4-0.6-0.8-1.1-1.4-1.4
				c-0.6-0.3-1.2-0.4-2-0.1c-0.2,0.1-0.4,0.2-0.7,0.4c-0.2,0.2-0.4,0.4-0.6,0.6c-0.2,0.2-0.2,0.5-0.3,0.7c0,0.3,0.1,0.5,0.3,0.8
				c0.1,0.2,0.3,0.3,0.5,0.5c0.2,0.1,0.5,0.1,0.7,0h0.1c0.3-0.2,0.6-0.2,0.9-0.2c0.3,0,0.6,0.2,0.8,0.5c0.2,0.3,0.3,0.5,0.2,0.8
				c-0.1,0.3-0.2,0.5-0.5,0.7c-0.2,0.1-0.4,0.2-0.6,0.2c-0.2,0-0.4,0-0.6-0.1c-0.2-0.1-0.4-0.2-0.6-0.3c-0.2-0.1-0.4-0.2-0.5-0.3
				c-0.2-0.1-0.4-0.3-0.6-0.5c-0.2-0.2-0.4-0.4-0.5-0.6c-0.3-0.4-0.4-0.8-0.4-1.2c0-0.4,0.1-0.8,0.3-1.1c0.2-0.3,0.5-0.7,0.8-1
				C223.6,19.9,224,19.6,224.4,19.5z M207,36.5c0.2-0.1,0.3-0.3,0.5-0.5c0.1-0.2,0.2-0.5,0.3-0.8c0.1-0.3,0.1-0.5,0.1-0.8
				c0-0.3-0.1-0.5-0.3-0.6c-0.5,0.1-0.9,0.3-1.4,0.6c-0.4,0.3-0.7,0.7-0.8,1.2c0,0.3,0,0.5,0.1,0.7c0.1,0.2,0.2,0.3,0.4,0.4
				c0.2,0.1,0.3,0.1,0.6,0.1C206.6,36.8,206.8,36.7,207,36.5z"/>
		</g>
	</g>
	<g>
		<ellipse class="st1" cx="29.7" cy="30" rx="25.7" ry="25.8"/>
		<path class="st2" d="M27.6,43.5c0,0-0.8-0.7-0.6-0.9c0.8-0.3,1.7-1.5,1.7-1.5l1.9-0.2l2.1,0.1l1.1,0.2l0.7,0.1c0,0,0.6,1,0.9,1.5
			c0.3,0.5-0.7,1.6-0.7,1.6l-1.1,1.2h-1.6l-1.7,0.2L29,45.2L28,44L27.6,43.5z"/>
		<g id="XMLID_4288_">
			<g>
				<g>
					<path class="st3" d="M2.8,24.3c0-0.1,0-0.1,0-0.2s0-0.1,0-0.2c0-0.1,0-0.1,0-0.2c0-0.1,0-0.1,0-0.2l-0.6-0.1l-0.1,0.4
						c0,0,0,0,0,0.1c0,0,0,0-0.1,0l-0.2,0L2,23.1l1,0.2c0,0.1,0.1,0.2,0.1,0.2c0,0.1,0,0.2,0,0.3c0,0.1,0,0.2,0,0.3
						c0,0.1,0,0.2,0,0.3c0,0.2-0.1,0.4-0.2,0.5c-0.1,0.1-0.2,0.3-0.4,0.4c-0.1,0.1-0.3,0.2-0.5,0.2c-0.2,0-0.4,0-0.6,0
						c-0.2,0-0.4-0.1-0.5-0.2c-0.2-0.1-0.3-0.2-0.4-0.4c-0.1-0.1-0.2-0.3-0.2-0.5s0-0.4,0-0.6c0-0.1,0.1-0.2,0.1-0.3
						c0-0.1,0.1-0.2,0.1-0.2c0-0.1,0.1-0.1,0.2-0.2C0.8,23,0.8,23,0.9,22.9L1,23.1c0,0,0,0.1,0,0.1c0,0,0,0,0,0.1
						c0,0-0.1,0.1-0.1,0.1c0,0-0.1,0.1-0.1,0.1c0,0.1-0.1,0.1-0.1,0.2c0,0.1-0.1,0.2-0.1,0.3c0,0.2,0,0.3,0,0.4
						c0,0.1,0.1,0.3,0.1,0.4c0.1,0.1,0.2,0.2,0.3,0.3c0.1,0.1,0.3,0.1,0.4,0.2c0.2,0,0.3,0,0.5,0c0.1,0,0.3-0.1,0.4-0.1
						c0.1-0.1,0.2-0.2,0.3-0.3C2.7,24.6,2.8,24.5,2.8,24.3z"/>
					<path class="st3" d="M0.7,20.8C0.7,20.8,0.8,20.8,0.7,20.8c0.1,0.1,0.1,0.1,0.1,0.1c0,0,0,0.1,0,0.1c0,0,0,0.1,0,0.1
						c0,0,0,0,0,0.1c0,0,0,0-0.1,0c0,0,0,0-0.1,0c0,0-0.1,0-0.1,0c0,0-0.1,0-0.1,0c0,0,0,0-0.1-0.1c0,0,0,0,0-0.1c0,0,0-0.1,0-0.1
						c0,0,0-0.1,0-0.1c0,0,0,0,0.1-0.1C0.6,20.8,0.6,20.8,0.7,20.8C0.7,20.8,0.7,20.8,0.7,20.8z M1,20C1,20,1,20,1,20
						c0.1,0.1,0.1,0.1,0.1,0.1c0,0,0,0.1,0,0.1c0,0,0,0.1,0,0.1c0,0,0,0.1,0,0.1c0,0,0,0-0.1,0c0,0,0,0-0.1,0c0,0-0.1,0-0.1,0
						c0,0-0.1,0-0.1,0c0,0,0,0-0.1-0.1c0,0,0-0.1,0-0.1c0,0,0-0.1,0-0.1c0,0,0-0.1,0-0.1c0,0,0,0,0.1,0S0.9,20,1,20
						C0.9,20,0.9,20,1,20z M3.5,21.5c0-0.1,0-0.2,0-0.3c0-0.1,0-0.2-0.1-0.3c0-0.1-0.1-0.2-0.2-0.2c-0.1-0.1-0.2-0.1-0.3-0.1
						l-1.6-0.5l0.1-0.4l1.6,0.5c0.1,0,0.3,0.1,0.4,0.2c0.1,0.1,0.2,0.2,0.3,0.3c0.1,0.1,0.1,0.3,0.1,0.4c0,0.1,0,0.3-0.1,0.5
						c-0.1,0.2-0.1,0.3-0.2,0.4c-0.1,0.1-0.2,0.2-0.3,0.3c-0.1,0.1-0.3,0.1-0.4,0.1c-0.1,0-0.3,0-0.4-0.1l-1.6-0.5L1,21.4L2.5,22
						C2.7,22,2.8,22,2.9,22C3,22,3.1,22,3.1,22c0.1,0,0.2-0.1,0.2-0.2C3.4,21.7,3.5,21.6,3.5,21.5z"/>
					<path class="st3" d="M2.7,16.9L2.9,17c0,0,0.1,0,0.1,0.1l1.4,2.3l0.6-1.4L5.2,18l-0.8,1.9l-0.1-0.1c0,0-0.1,0-0.1-0.1l-1.4-2.3
						l-0.6,1.4l-0.3-0.1L2.7,16.9z"/>
					<path class="st3" d="M4,14.6l0.3,0.1l-0.6,1.1l0.8,0.4l0.5-0.9l0.3,0.1l-0.5,0.9l0.8,0.5l0.6-1.1l0.3,0.1l-0.8,1.5L3.2,16
						L4,14.6z"/>
					<path class="st3" d="M6.8,14.8l0.7-1L7.7,14l-0.9,1.3l-2.3-1.5l0.2-0.3L6.8,14.8z"/>
					<path class="st3" d="M8.1,13L8.8,12l0.2,0.2l-1,1.2L6,11.7l0.2-0.3L8.1,13z"/>
					<path class="st3" d="M7.5,9.2C7.5,9.2,7.5,9.3,7.5,9.2c0.1,0.1,0.1,0.1,0.1,0.2c0,0,0,0.1,0,0.1c0,0,0,0.1,0,0.1
						c0,0,0,0-0.1,0.1c0,0-0.1,0-0.1,0c0,0-0.1,0-0.1,0c0,0-0.1,0-0.1,0c0,0,0,0-0.1-0.1c0,0,0-0.1,0-0.1c0,0,0-0.1,0-0.1
						c0,0,0-0.1,0-0.1c0,0,0,0,0.1-0.1c0,0,0.1,0,0.1,0C7.3,9.1,7.4,9.2,7.5,9.2C7.4,9.2,7.4,9.2,7.5,9.2z M9.8,11.4l-0.3,0.3
						l-2-1.9l0.3-0.3L9.8,11.4z"/>
					<path class="st3" d="M9.7,9.3l0.1-0.1c0,0,0.1-0.1,0.1-0.1c0,0,0-0.1,0-0.1l0-1.4c0,0,0-0.1,0-0.1c0,0,0-0.1,0.1-0.1l0.2-0.2
						l0,1.6c0,0,0,0.1,0,0.1c0,0,0,0.1,0,0.1c0,0,0.1,0,0.1,0c0,0,0.1,0,0.1,0l1.7,0.2l-0.2,0.2c0,0,0,0,0,0c0,0,0,0,0,0
						c0,0,0,0,0,0c0,0,0,0,0,0l-1.4-0.2c0,0,0,0-0.1,0c0,0,0,0,0,0c0,0,0,0-0.1,0c0,0,0,0-0.1,0L9.9,9.5l0.9,0.9l-0.3,0.3l-1.9-2
						l0.3-0.3L9.7,9.3z"/>
					<path class="st3" d="M11.5,6.1L11.8,6c0,0,0.1,0,0.1,0c0,0,0.1,0,0.1,0l1.7,1.1c0,0,0.1,0.1,0.1,0.1c0,0,0.1,0.1,0.1,0.1
						c0-0.1,0-0.1-0.1-0.2c0,0,0-0.1,0-0.1l-0.5-2c0,0,0,0,0-0.1c0,0,0-0.1,0-0.1l0.2-0.2l0.6,2.9L14,7.7L11.5,6.1z"/>
					<path class="st3" d="M15.9,3.4L16,3.7l-1.1,0.6l0.4,0.8l0.9-0.5l0.1,0.3l-0.9,0.5l0.5,0.8L17,5.5l0.1,0.3l-1.5,0.8l-1.3-2.4
						L15.9,3.4z"/>
					<path class="st3" d="M19.8,4.3c0.1,0,0.1-0.1,0.2-0.1c0.1,0,0.1-0.1,0.2-0.1c0,0,0.1-0.1,0.1-0.1c0,0,0.1-0.1,0.1-0.1l-0.2-0.6
						l-0.4,0.2c0,0,0,0-0.1,0c0,0,0,0,0,0l-0.1-0.2L20.4,3l0.4,1c0,0.1-0.1,0.1-0.2,0.2c-0.1,0.1-0.1,0.1-0.2,0.2
						c-0.1,0.1-0.1,0.1-0.2,0.2c-0.1,0-0.2,0.1-0.3,0.1c-0.2,0.1-0.4,0.1-0.5,0.1c-0.2,0-0.3,0-0.5-0.1c-0.2-0.1-0.3-0.2-0.4-0.3
						c-0.1-0.1-0.2-0.3-0.3-0.5C18.1,3.6,18,3.4,18,3.2c0-0.2,0-0.4,0.1-0.5c0.1-0.2,0.2-0.3,0.3-0.4c0.1-0.1,0.3-0.2,0.5-0.3
						c0.1,0,0.2-0.1,0.3-0.1c0.1,0,0.2,0,0.3,0c0.1,0,0.2,0,0.2,0c0.1,0,0.2,0,0.2,0.1l0,0.2c0,0,0,0.1-0.1,0.1c0,0,0,0-0.1,0
						c0,0-0.1,0-0.1,0c0,0-0.1,0-0.2,0c-0.1,0-0.1,0-0.2,0c-0.1,0-0.2,0-0.3,0.1c-0.1,0.1-0.3,0.1-0.4,0.2c-0.1,0.1-0.2,0.2-0.2,0.3
						c0,0.1-0.1,0.3-0.1,0.4c0,0.1,0,0.3,0.1,0.4c0.1,0.2,0.1,0.3,0.2,0.4c0.1,0.1,0.2,0.2,0.3,0.2c0.1,0.1,0.2,0.1,0.4,0.1
						C19.6,4.4,19.7,4.4,19.8,4.3z"/>
					<path class="st3" d="M22.5,0.9l0.1,0.3l-1.3,0.4l0.2,0.9l1-0.3l0.1,0.3l-1,0.3l0.3,0.9l1.3-0.4l0.1,0.3L21.6,4l-0.7-2.6
						L22.5,0.9z"/>
					<path class="st3" d="M23.8,0.6C23.8,0.6,23.8,0.6,23.8,0.6l2,1.8c0,0,0-0.1,0-0.1c0,0,0-0.1,0-0.1l-0.3-1.9l0.3-0.1L26.2,3
						L26,3c0,0-0.1,0-0.1,0c0,0,0,0-0.1,0l-1.9-1.8c0,0,0,0.1,0,0.1c0,0,0,0.1,0,0.1l0.3,1.9L24,3.3l-0.5-2.7L23.8,0.6
						C23.7,0.6,23.8,0.6,23.8,0.6z"/>
					<path class="st3" d="M28,3.3C28,3.3,28,3.3,28,3.3C28,3.3,28,3.3,28,3.3c0.1,0,0.1,0,0.1,0c0,0,0,0,0.1,0c0.1,0,0.1,0,0.1,0
						c0,0,0-0.1,0-0.1c0,0,0,0,0-0.1c0,0,0,0-0.1,0c0,0-0.1,0-0.1,0c0,0-0.1,0-0.1,0l0.1-0.2c-0.2,0-0.3,0-0.5-0.1
						c-0.1-0.1-0.3-0.2-0.4-0.3C27.1,2.3,27,2.2,26.9,2c-0.1-0.2-0.1-0.3-0.1-0.5c0-0.2,0-0.4,0.1-0.6s0.1-0.3,0.3-0.5
						c0.1-0.1,0.3-0.2,0.4-0.3C27.7,0.1,27.9,0,28.1,0c0.2,0,0.4,0,0.5,0.1c0.1,0.1,0.3,0.1,0.4,0.2l-0.1,0.2c0,0,0,0,0,0
						c0,0,0,0,0,0c0,0,0,0-0.1,0c0,0,0,0-0.1,0c0,0-0.1,0-0.1-0.1c0,0-0.1,0-0.1,0c0,0-0.1,0-0.2,0c-0.1,0-0.1,0-0.2,0
						c-0.1,0-0.3,0-0.4,0.1c-0.1,0.1-0.2,0.1-0.3,0.2c-0.1,0.1-0.1,0.2-0.2,0.4c0,0.1-0.1,0.3,0,0.5c0,0.2,0,0.3,0.1,0.5
						c0.1,0.1,0.1,0.2,0.2,0.3c0.1,0.1,0.2,0.2,0.3,0.2c0.1,0,0.2,0.1,0.4,0c0.1,0,0.2,0,0.2,0c0.1,0,0.1,0,0.2-0.1
						c0.1,0,0.1-0.1,0.1-0.1c0,0,0.1-0.1,0.1-0.1c0,0,0,0,0.1,0c0,0,0,0,0.1,0l0.2,0.1c-0.1,0.1-0.2,0.2-0.4,0.3
						c-0.1,0.1-0.3,0.1-0.5,0.1l0,0.1c0.1,0,0.2,0,0.3,0.1c0.1,0,0.1,0.1,0.1,0.2c0,0,0,0.1,0,0.1c0,0,0,0.1-0.1,0.1
						c0,0-0.1,0-0.1,0.1c-0.1,0-0.1,0-0.2,0c-0.1,0-0.1,0-0.1,0c0,0-0.1,0-0.1,0L28,3.3C27.9,3.3,28,3.3,28,3.3z"/>
					<path class="st3" d="M30.3,2.4l1.2,0l0,0.3l-1.6,0L30,0l0.4,0L30.3,2.4z"/>
					<path class="st3" d="M34.1,0.3l0,0.3l-1.3-0.1l-0.1,0.9l1.1,0.1l0,0.3l-1.1-0.1l-0.1,0.9l1.3,0.1l0,0.3l-1.7-0.2l0.3-2.7
						L34.1,0.3z"/>
					<path class="st3" d="M34.8,3.7C34.9,3.7,34.9,3.7,34.8,3.7C34.9,3.7,34.9,3.7,34.8,3.7c0.1,0,0.1,0.1,0.1,0.1c0,0,0,0,0.1,0
						c0.1,0,0.1,0,0.1,0c0,0,0.1,0,0.1-0.1c0,0,0,0,0-0.1s0,0-0.1-0.1s-0.1,0-0.1,0c0,0-0.1,0-0.1,0L35,3.3c-0.1,0-0.2-0.1-0.3-0.2
						c-0.1-0.1-0.2-0.2-0.3-0.3l0.1-0.2c0,0,0,0,0,0c0,0,0,0,0.1,0c0,0,0.1,0,0.1,0.1c0,0,0.1,0.1,0.1,0.1c0,0,0.1,0.1,0.2,0.1
						C35,3,35.1,3,35.2,3c0.1,0,0.2,0,0.2,0c0.1,0,0.1,0,0.2-0.1c0.1,0,0.1-0.1,0.1-0.1c0-0.1,0.1-0.1,0.1-0.2c0-0.1,0-0.2,0-0.2
						c0-0.1-0.1-0.1-0.1-0.2c-0.1,0-0.1-0.1-0.2-0.1c-0.1,0-0.1-0.1-0.2-0.1c-0.1,0-0.1-0.1-0.2-0.1c-0.1,0-0.1-0.1-0.2-0.2
						c0-0.1-0.1-0.1-0.1-0.2c0-0.1,0-0.2,0-0.3c0-0.1,0.1-0.2,0.1-0.3c0.1-0.1,0.1-0.1,0.2-0.2c0.1-0.1,0.2-0.1,0.3-0.1
						c0.1,0,0.2,0,0.4,0c0.1,0,0.3,0.1,0.4,0.2c0.1,0.1,0.2,0.2,0.3,0.3l-0.1,0.2c0,0,0,0,0,0c0,0,0,0-0.1,0c0,0,0,0-0.1,0
						c0,0-0.1-0.1-0.1-0.1C36.1,1,36,1,36,1c-0.1,0-0.1-0.1-0.2-0.1c-0.1,0-0.2,0-0.2,0c-0.1,0-0.1,0-0.2,0.1c0,0-0.1,0.1-0.1,0.1
						c0,0-0.1,0.1-0.1,0.2c0,0.1,0,0.1,0,0.2c0,0.1,0.1,0.1,0.1,0.2c0.1,0,0.1,0.1,0.2,0.1c0.1,0,0.1,0.1,0.2,0.1
						c0.1,0,0.1,0.1,0.2,0.1C36,2,36.1,2.1,36.1,2.1c0,0.1,0.1,0.1,0.1,0.2c0,0.1,0,0.2,0,0.3c0,0.1-0.1,0.2-0.1,0.3
						C36,3.1,36,3.1,35.9,3.2c-0.1,0.1-0.2,0.1-0.3,0.1c-0.1,0-0.2,0-0.3,0l-0.1,0.1c0.1,0,0.2,0.1,0.2,0.2c0,0.1,0.1,0.1,0,0.2
						c0,0,0,0.1-0.1,0.1c0,0-0.1,0-0.1,0.1c0,0-0.1,0-0.1,0c-0.1,0-0.1,0-0.2,0c-0.1,0-0.1,0-0.1,0c0,0-0.1,0-0.1-0.1L34.8,3.7
						C34.8,3.7,34.8,3.7,34.8,3.7z"/>
					<path class="st3" d="M39.3,1.5l-0.1,0.3l-0.8-0.3l-0.7,2.3l-0.4-0.1L38,1.5l-0.9-0.3l0.1-0.3L39.3,1.5z"/>
					<path class="st3" d="M39.5,4.6l-0.3-0.1l1-2.6L40.5,2L39.5,4.6z M40.7,1.6C40.7,1.6,40.7,1.6,40.7,1.6
						c-0.1,0.1-0.1,0.1-0.1,0.1c0,0-0.1,0-0.1,0c0,0-0.1,0-0.1,0c0,0-0.1,0-0.1,0c0,0,0,0-0.1-0.1c0,0,0-0.1,0-0.1c0,0,0-0.1,0-0.1
						c0,0,0-0.1,0-0.1c0,0,0,0,0.1-0.1c0,0,0.1,0,0.1,0c0,0,0.1,0,0.1,0c0,0,0.1,0,0.1,0c0,0,0,0,0.1,0.1
						C40.7,1.4,40.7,1.4,40.7,1.6C40.7,1.5,40.7,1.5,40.7,1.6z"/>
					<path class="st3" d="M41.3,4.1l-0.5,1l-0.3-0.2l1.2-2.5l0.7,0.3c0.2,0.1,0.3,0.2,0.4,0.2c0.1,0.1,0.2,0.2,0.2,0.3
						C43,3.4,43,3.5,43,3.6c0,0.1,0,0.2-0.1,0.3c0,0.1-0.1,0.2-0.2,0.2c-0.1,0.1-0.1,0.1-0.2,0.1s-0.2,0.1-0.3,0.1
						c-0.1,0-0.2,0-0.3,0c0,0,0.1,0.1,0.1,0.2l0.3,1.3L42,5.7c-0.1,0-0.1-0.1-0.1-0.1l-0.2-1.2c0,0,0-0.1,0-0.1c0,0,0,0-0.1-0.1
						L41.3,4.1z M41.4,3.8L41.8,4C41.9,4,42,4.1,42,4.1c0.1,0,0.2,0,0.2,0c0.1,0,0.1-0.1,0.2-0.1c0.1,0,0.1-0.1,0.1-0.2
						c0.1-0.1,0.1-0.3,0-0.4c-0.1-0.1-0.2-0.2-0.4-0.3l-0.4-0.2L41.4,3.8z"/>
					<path class="st3" d="M44.5,6c0,0,0,0.1,0,0.1C44.5,6.1,44.6,6.1,44.5,6c0.1,0,0.1,0,0.2,0l1.7-0.9c0,0,0.1,0,0.1,0
						c0,0,0,0,0.1,0l0.2,0.1l-1.4,2.3L45,7.4l1.1-1.7c0,0,0,0,0-0.1c0,0,0-0.1,0.1-0.1l-1.7,1c-0.1,0-0.1,0-0.2,0l0,0
						c0,0-0.1-0.1-0.1-0.1l0.1-2c0,0,0,0.1,0,0.1c0,0,0,0.1,0,0.1l-1.1,1.7l-0.3-0.2l1.4-2.3l0.2,0.1c0,0,0,0,0.1,0c0,0,0,0,0,0.1
						l-0.1,1.9C44.5,6,44.5,6,44.5,6z"/>
					<path class="st3" d="M49,7l-0.2,0.2l-1-0.8l-0.6,0.7l0.8,0.7L47.9,8l-0.8-0.7l-0.6,0.7l1,0.8l-0.2,0.2l-1.3-1L47.7,6L49,7z"/>
					<path class="st3" d="M50.3,10.7C50.2,10.8,50.2,10.8,50.3,10.7C50.2,10.8,50.3,10.8,50.3,10.7c0.1,0,0.1,0,0.2,0l1.9-0.5
						c0,0,0.1,0,0.1,0c0,0,0,0,0.1,0l0.2,0.2l-2,1.9l-0.2-0.2l1.5-1.4c0,0,0,0,0.1-0.1c0,0,0,0,0.1-0.1l-1.9,0.5c-0.1,0-0.1,0-0.2,0
						l0,0c0,0,0-0.1,0-0.2L50.5,9c0,0,0,0.1-0.1,0.1c0,0,0,0-0.1,0.1l-1.5,1.4l-0.2-0.2l2-1.9l0.2,0.2c0,0,0,0,0,0.1c0,0,0,0,0,0.1
						l-0.6,1.8C50.3,10.7,50.3,10.7,50.3,10.7z"/>
					<path class="st3" d="M54.3,12.8L54.1,13l-0.8-1.1l-0.7,0.5l0.6,0.9L53,13.5l-0.6-0.9l-0.7,0.6l0.8,1.1l-0.2,0.2l-1-1.4l2.2-1.6
						L54.3,12.8z"/>
					<path class="st3" d="M53.8,14.9l-1,0.6l-0.2-0.3l2.3-1.4l0.4,0.7c0.1,0.1,0.2,0.3,0.2,0.4c0,0.1,0,0.2,0,0.3
						c0,0.1,0,0.2-0.1,0.3c-0.1,0.1-0.1,0.2-0.2,0.2c-0.1,0.1-0.2,0.1-0.3,0.1c-0.1,0-0.2,0-0.3,0c-0.1,0-0.2,0-0.3-0.1
						c-0.1,0-0.2-0.1-0.2-0.2c0,0.1,0,0.1,0,0.2l-0.5,1.3l-0.2-0.3c0-0.1,0-0.1,0-0.2l0.5-1.1c0,0,0-0.1,0-0.1c0,0,0-0.1,0-0.1
						L53.8,14.9z M54,14.7l0.2,0.3c0.1,0.1,0.1,0.2,0.2,0.2c0.1,0.1,0.1,0.1,0.2,0.1c0.1,0,0.1,0,0.2,0c0.1,0,0.1,0,0.2-0.1
						c0.1-0.1,0.2-0.2,0.2-0.3c0-0.1,0-0.3-0.1-0.5l-0.2-0.3L54,14.7z"/>
					<path class="st3" d="M55.5,17.1l0.1,0.1c0,0,0,0.1,0.1,0.1c0,0,0.1,0,0.1,0l1.3,0.4c0,0,0.1,0,0.1,0c0,0,0,0,0.1,0.1l0.1,0.3
						l-1.5-0.4c0,0-0.1,0-0.1,0c0,0-0.1,0-0.1,0c0,0,0,0.1,0,0.1c0,0,0,0.1,0,0.1l-0.7,1.5l-0.1-0.3c0,0,0,0,0-0.1c0,0,0,0,0,0
						c0,0,0,0,0,0c0,0,0,0,0,0l0.6-1.3c0,0,0,0,0-0.1c0,0,0,0,0-0.1c0,0,0,0,0-0.1c0,0,0,0,0-0.1l-0.1-0.2l-1.1,0.5L54,17.5l2.5-1.2
						l0.2,0.3L55.5,17.1z"/>
					<path class="st3" d="M58.3,20.7L58,20.8l-0.5-1.2l-0.9,0.3l0.4,1l-0.3,0.1l-0.4-1l-0.9,0.3l0.5,1.2l-0.3,0.1L55.1,20l2.6-0.9
						L58.3,20.7z"/>
					<path class="st3" d="M59.1,23.5l-0.1,0c0,0-0.1,0-0.1,0l-2.5-0.9l0.4,1.5l-0.3,0.1l-0.5-2l0.1,0c0,0,0.1,0,0.1,0l2.5,0.9
						l-0.4-1.5l0.3-0.1L59.1,23.5z"/>
					<path class="st3" d="M56.6,25.3L56.6,25l2.7-0.5l0.1,0.4L56.6,25.3z M59.8,24.8C59.8,24.8,59.7,24.8,59.8,24.8
						c-0.1,0-0.1,0-0.2,0c0,0,0,0-0.1-0.1c0,0,0-0.1,0-0.1c0,0,0-0.1,0-0.1c0,0,0-0.1,0-0.1c0,0,0,0,0.1-0.1c0,0,0.1,0,0.1,0
						c0,0,0.1,0,0.1,0c0,0,0.1,0,0.1,0s0,0,0.1,0.1c0,0,0,0.1,0,0.1c0,0,0,0.1,0,0.1c0,0,0,0.1,0,0.1C59.9,24.7,59.9,24.7,59.8,24.8
						C59.9,24.8,59.8,24.8,59.8,24.8z"/>
				</g>
			</g>
			<g>
				<g>
					<path class="st3" d="M0,32.2l2.7-0.3l0.1,0.9c0,0.2,0,0.3,0,0.4c0,0.1-0.1,0.2-0.1,0.3c-0.1,0.1-0.1,0.1-0.2,0.2
						s-0.2,0.1-0.3,0.1c-0.1,0-0.1,0-0.2,0c-0.1,0-0.1,0-0.2-0.1c-0.1,0-0.1-0.1-0.2-0.1c0-0.1-0.1-0.1-0.1-0.2
						c0,0.2-0.1,0.4-0.2,0.5C1.3,33.9,1.2,34,1,34c-0.1,0-0.2,0-0.3,0c-0.1,0-0.2-0.1-0.3-0.2c-0.1-0.1-0.1-0.2-0.2-0.3
						c0-0.1-0.1-0.2-0.1-0.4L0,32.2z M1.3,32.4l-0.9,0.1l0.1,0.6c0,0.1,0,0.2,0.1,0.3c0,0.1,0.1,0.1,0.1,0.2c0,0,0.1,0.1,0.2,0.1
						c0.1,0,0.1,0,0.2,0c0.1,0,0.2-0.1,0.3-0.2c0.1-0.1,0.1-0.3,0.1-0.5L1.3,32.4z M1.6,32.4l0,0.5c0,0.1,0,0.2,0.1,0.3
						c0,0.1,0.1,0.1,0.1,0.2c0,0,0.1,0.1,0.2,0.1c0.1,0,0.1,0,0.2,0c0.2,0,0.3-0.1,0.3-0.2c0.1-0.1,0.1-0.3,0.1-0.5l0-0.5L1.6,32.4z
						"/>
					<path class="st3" d="M3.4,36.5l-0.3,0.1l-0.3-1.3L2,35.5l0.2,1l-0.3,0.1l-0.2-1l-0.9,0.2L1,37l-0.3,0.1l-0.3-1.7l2.7-0.5
						L3.4,36.5z"/>
					<path class="st3" d="M1.7,40.5l-0.1-0.3c0,0,0-0.1,0-0.1c0,0,0,0,0-0.1l0.6-0.4l-0.4-1.2l-0.7,0c0,0,0,0-0.1,0c0,0,0,0,0-0.1
						L1,38l2.9,0.2L4,38.6L1.7,40.5z M2.2,38.5l0.3,1l0.9-0.7c0.1,0,0.1-0.1,0.2-0.2c-0.1,0-0.1,0-0.1,0c0,0-0.1,0-0.1,0L2.2,38.5z"
						/>
					<path class="st3" d="M2.8,42.3c0,0.1,0.1,0.2,0.2,0.3c0.1,0.1,0.2,0.1,0.2,0.1c0.1,0,0.2,0,0.3,0c0.1,0,0.2,0,0.3-0.1L5.4,42
						l0.2,0.3L4,43c-0.1,0.1-0.3,0.1-0.4,0.1c-0.1,0-0.3,0-0.4-0.1c-0.1,0-0.2-0.1-0.4-0.2c-0.1-0.1-0.2-0.2-0.3-0.4
						c-0.1-0.2-0.1-0.3-0.1-0.5c0-0.1,0-0.3,0.1-0.4c0.1-0.1,0.1-0.2,0.2-0.3c0.1-0.1,0.2-0.2,0.4-0.2l1.5-0.7l0.2,0.3l-1.5,0.7
						c-0.1,0-0.2,0.1-0.3,0.2c-0.1,0.1-0.1,0.1-0.2,0.2c0,0.1-0.1,0.2-0.1,0.3C2.8,42.1,2.8,42.2,2.8,42.3z"/>
					<path class="st3" d="M7,44.9l-0.3,0.2l-0.5-0.8l-2.1,1.2L4,45.2L6.1,44l-0.5-0.8l0.3-0.2L7,44.9z"/>
					<path class="st3" d="M6.8,47.5l-0.9,0.7l-0.2-0.3l0.9-0.7l0.7-1.8l0.2,0.3c0,0,0,0.1,0,0.1c0,0,0,0.1,0,0.1L7,46.9
						C7,47,7,47,7,47.1c0,0,0,0.1-0.1,0.1c0,0,0.1,0,0.1,0c0,0,0.1,0,0.1,0L8.4,47c0,0,0,0,0.1,0c0,0,0,0,0.1,0l0.2,0.3L6.8,47.5z"
						/>
					<path class="st3" d="M9.8,52.4l-0.2-0.2c0,0,0,0,0-0.1c0,0,0-0.1,0-0.1l0.3-0.7L9,50.5l-0.6,0.3c0,0,0,0-0.1,0c0,0-0.1,0-0.1,0
						L8,50.6l2.7-1.2l0.3,0.3L9.8,52.4z M9.3,50.4l0.7,0.7l0.5-1.1c0-0.1,0.1-0.2,0.1-0.2c0,0-0.1,0.1-0.1,0.1c0,0-0.1,0-0.1,0.1
						L9.3,50.4z"/>
					<path class="st3" d="M12.6,51.1C12.6,51.2,12.6,51.2,12.6,51.1l0,2.7c0,0,0-0.1,0.1-0.1c0,0,0-0.1,0.1-0.1l1.2-1.5l0.3,0.2
						l-1.7,2.2l-0.1-0.1c0,0,0,0,0-0.1c0,0,0,0,0-0.1l0-2.6c0,0,0,0.1-0.1,0.1c0,0,0,0,0,0.1L11,53.3l-0.3-0.2l1.7-2.2L12.6,51.1
						C12.6,51.1,12.6,51.1,12.6,51.1z"/>
					<path class="st3" d="M16.5,55.3c-0.1,0.2-0.2,0.3-0.4,0.4c-0.1,0.1-0.3,0.2-0.5,0.2c-0.2,0-0.3,0.1-0.5,0
						c-0.2,0-0.4-0.1-0.5-0.2l-0.9-0.5l1.4-2.4l0.9,0.5c0.2,0.1,0.3,0.2,0.4,0.4c0.1,0.1,0.2,0.3,0.2,0.5c0,0.2,0,0.3,0,0.5
						C16.6,55,16.6,55.2,16.5,55.3z M16.1,55.1c0.1-0.1,0.1-0.3,0.2-0.4c0-0.1,0-0.3,0-0.4c0-0.1-0.1-0.2-0.2-0.3
						c-0.1-0.1-0.2-0.2-0.3-0.3l-0.6-0.3l-1.1,1.9l0.6,0.3c0.1,0.1,0.3,0.1,0.4,0.1c0.1,0,0.3,0,0.4,0c0.1,0,0.2-0.1,0.3-0.2
						C15.9,55.4,16,55.3,16.1,55.1z"/>
					<path class="st3" d="M19,56.8l-0.4,1.1l-0.3-0.1l1-2.6l0.7,0.3c0.2,0.1,0.3,0.1,0.4,0.2c0.1,0.1,0.2,0.2,0.2,0.3
						c0.1,0.1,0.1,0.2,0.1,0.3c0,0.1,0,0.2-0.1,0.3c0,0.1-0.1,0.2-0.1,0.2c-0.1,0.1-0.1,0.1-0.2,0.2c-0.1,0-0.2,0.1-0.3,0.1
						c-0.1,0-0.2,0-0.3,0c0,0,0.1,0.1,0.1,0.2l0.4,1.3l-0.3-0.1c-0.1,0-0.1-0.1-0.1-0.1L19.4,57c0,0,0-0.1,0-0.1c0,0-0.1,0-0.1-0.1
						L19,56.8z M19.1,56.5l0.4,0.1c0.1,0,0.2,0.1,0.3,0.1c0.1,0,0.2,0,0.2,0c0.1,0,0.1-0.1,0.2-0.1c0.1-0.1,0.1-0.1,0.1-0.2
						c0.1-0.2,0.1-0.3,0-0.4c-0.1-0.1-0.2-0.2-0.4-0.3l-0.4-0.1L19.1,56.5z"/>
					<path class="st3" d="M23.6,56.6l-0.1,0.3l-1.3-0.3L22,57.4l1,0.3L23,58l-1-0.3l-0.2,0.9l1.3,0.3l-0.1,0.3l-1.6-0.4l0.7-2.6
						L23.6,56.6z"/>
					<path class="st3" d="M25.3,58.7c0,0.2-0.1,0.3-0.1,0.4c-0.1,0.1-0.1,0.2-0.2,0.3c-0.1,0.1-0.2,0.1-0.3,0.1c-0.1,0-0.2,0-0.4,0
						c-0.1,0-0.2-0.1-0.4-0.1c0,0,0-0.1,0-0.1c0,0,0-0.1,0-0.1c0,0,0,0,0,0c0,0,0,0,0.1,0c0,0,0.1,0,0.1,0c0,0,0.1,0,0.1,0
						c0.1,0,0.2,0,0.2,0c0.1,0,0.1,0,0.2-0.1c0.1,0,0.1-0.1,0.1-0.2c0-0.1,0.1-0.2,0.1-0.3l0.3-1.8l0.4,0.1L25.3,58.7z"/>
					<path class="st3" d="M27.7,59.7c0.1,0,0.2,0,0.3,0c0.1,0,0.2-0.1,0.2-0.1c0.1-0.1,0.1-0.1,0.2-0.2c0-0.1,0.1-0.2,0.1-0.3
						l0.1-1.7l0.4,0L28.8,59c0,0.2,0,0.3-0.1,0.4c-0.1,0.1-0.1,0.2-0.2,0.3c-0.1,0.1-0.2,0.2-0.4,0.2C28,60,27.8,60,27.6,60
						c-0.2,0-0.3-0.1-0.4-0.1c-0.1-0.1-0.2-0.2-0.3-0.3c-0.1-0.1-0.2-0.2-0.2-0.4c0-0.1-0.1-0.3,0-0.4l0.1-1.7l0.4,0L27,58.8
						c0,0.1,0,0.2,0,0.3c0,0.1,0.1,0.2,0.1,0.3c0.1,0.1,0.1,0.1,0.2,0.2C27.5,59.6,27.6,59.6,27.7,59.7z"/>
					<path class="st3" d="M29.7,57.3l0.3,0c0,0,0.1,0,0.1,0c0,0,0,0,0,0.1l0.9,1.9c0,0,0,0.1,0.1,0.1c0,0.1,0,0.1,0.1,0.2
						c0-0.1,0-0.1,0-0.2c0-0.1,0-0.1,0-0.1l0.7-2c0,0,0,0,0-0.1c0,0,0,0,0.1,0l0.3,0l-1,2.8L31,60L29.7,57.3z"/>
					<path class="st3" d="M34.8,56.8l0,0.3l-1.3,0.2l0.1,0.9l1.1-0.2l0,0.3l-1,0.2l0.1,0.9l1.3-0.2l0,0.3l-1.7,0.3l-0.4-2.7
						L34.8,56.8z"/>
					<path class="st3" d="M36,56.5C36,56.5,36.1,56.6,36,56.5l2.1,1.6c0,0,0-0.1,0-0.1c0,0,0-0.1,0-0.1l-0.5-1.9l0.3-0.1l0.7,2.6
						l-0.2,0c0,0-0.1,0-0.1,0c0,0,0,0-0.1,0l-2.1-1.6c0,0,0,0.1,0,0.1c0,0,0,0.1,0,0.1l0.5,1.9l-0.3,0.1l-0.7-2.6L36,56.5
						C36,56.5,36,56.5,36,56.5z"/>
					<path class="st3" d="M42.1,57.3l-0.3,0.1c0,0-0.1,0-0.1,0c0,0,0,0-0.1,0l-0.5-0.5l-1.1,0.5l0,0.7c0,0,0,0,0,0.1
						c0,0,0,0-0.1,0.1l-0.3,0.1l0-3l0.3-0.1L42.1,57.3z M40.1,57.1l0.9-0.4l-0.8-0.9c-0.1-0.1-0.1-0.1-0.2-0.2c0,0.1,0,0.1,0,0.1
						c0,0,0,0.1,0,0.1L40.1,57.1z"/>
					<path class="st3" d="M43.3,53.6l0.1,0.3l-0.8,0.4l1.1,2.2l-0.3,0.2l-1.1-2.2l-0.8,0.4l-0.1-0.3L43.3,53.6z"/>
					<path class="st3" d="M45.9,55.2l-0.3,0.2l-1.5-2.3l0.3-0.2L45.9,55.2z"/>
					<path class="st3" d="M48.3,51.8c0.1,0.2,0.2,0.3,0.3,0.5s0.1,0.3,0.1,0.5c0,0.2-0.1,0.3-0.2,0.5c-0.1,0.2-0.2,0.3-0.4,0.4
						c-0.2,0.1-0.3,0.2-0.5,0.3c-0.2,0-0.3,0.1-0.5,0c-0.2,0-0.3-0.1-0.5-0.2c-0.2-0.1-0.3-0.2-0.4-0.4c-0.1-0.2-0.2-0.3-0.3-0.5
						c-0.1-0.2-0.1-0.3-0.1-0.5c0-0.2,0.1-0.3,0.2-0.5c0.1-0.2,0.2-0.3,0.4-0.4c0.2-0.1,0.3-0.2,0.5-0.3c0.2,0,0.3-0.1,0.5,0
						c0.2,0,0.3,0.1,0.5,0.2C48,51.5,48.2,51.6,48.3,51.8z M48,52c-0.1-0.1-0.2-0.2-0.3-0.3c-0.1-0.1-0.2-0.1-0.4-0.2
						c-0.1,0-0.2,0-0.4,0c-0.1,0-0.2,0.1-0.4,0.2c-0.1,0.1-0.2,0.2-0.3,0.3c-0.1,0.1-0.1,0.2-0.1,0.4c0,0.1,0,0.3,0.1,0.4
						c0,0.1,0.1,0.3,0.2,0.4c0.1,0.1,0.2,0.2,0.3,0.3c0.1,0.1,0.2,0.1,0.4,0.1c0.1,0,0.2,0,0.4,0s0.2-0.1,0.4-0.2
						c0.1-0.1,0.2-0.2,0.3-0.3c0.1-0.1,0.1-0.2,0.1-0.4c0-0.1,0-0.3-0.1-0.4C48.2,52.3,48.1,52.2,48,52z"/>
					<path class="st3" d="M48.4,49.9C48.4,49.9,48.4,49.9,48.4,49.9l2.7,0.3c0,0-0.1,0-0.1-0.1c0,0,0,0-0.1-0.1l-1.4-1.4l0.2-0.2
						l1.9,1.9l-0.1,0.1c0,0,0,0-0.1,0c0,0,0,0-0.1,0l-2.6-0.3c0,0,0,0,0.1,0.1s0,0,0.1,0.1l1.4,1.4L50.1,52L48.2,50L48.4,49.9
						C48.3,49.9,48.4,49.9,48.4,49.9z"/>
					<path class="st3" d="M54.2,46.3C54.2,46.3,54.2,46.3,54.2,46.3l0.3-0.1c0,0.2,0,0.3,0,0.5c0,0.2-0.1,0.4-0.2,0.5
						c-0.1,0.2-0.2,0.3-0.4,0.4c-0.1,0.1-0.3,0.1-0.5,0.2c-0.2,0-0.3,0-0.5,0c-0.2,0-0.3-0.1-0.5-0.3c-0.2-0.1-0.3-0.3-0.4-0.4
						c-0.1-0.2-0.2-0.3-0.2-0.5c0-0.2,0-0.3,0-0.5c0-0.2,0.1-0.3,0.2-0.5c0.1-0.2,0.2-0.3,0.4-0.4c0.1-0.1,0.3-0.1,0.4-0.2l0.1,0.2
						c0,0,0,0,0,0c0,0,0,0,0,0c0,0,0,0,0,0c0,0,0,0-0.1,0c0,0-0.1,0-0.1,0c0,0-0.1,0-0.1,0.1c0,0-0.1,0.1-0.1,0.1
						c0,0-0.1,0.1-0.1,0.2c-0.1,0.1-0.1,0.2-0.2,0.4c0,0.1,0,0.3,0,0.4c0,0.1,0.1,0.2,0.2,0.4c0.1,0.1,0.2,0.2,0.3,0.3
						c0.1,0.1,0.3,0.2,0.4,0.2c0.1,0,0.3,0,0.4,0c0.1,0,0.2-0.1,0.3-0.1c0.1-0.1,0.2-0.2,0.3-0.3c0-0.1,0.1-0.1,0.1-0.2
						c0-0.1,0.1-0.1,0.1-0.2s0-0.1,0-0.2C54.2,46.5,54.2,46.4,54.2,46.3C54.2,46.3,54.2,46.3,54.2,46.3z"/>
					<path class="st3" d="M53.9,42.5l0.3,0.1l-0.6,1.2l0.8,0.4l0.5-0.9l0.3,0.1l-0.5,0.9l0.8,0.5l0.6-1.2l0.3,0.1l-0.8,1.5L53,44
						L53.9,42.5z"/>
					<path class="st3" d="M54.4,41.4C54.4,41.4,54.5,41.4,54.4,41.4l2.6-0.7c0,0-0.1,0-0.1,0c0,0-0.1,0-0.1,0L55,39.9l0.1-0.3l2.5,1
						l-0.1,0.2c0,0,0,0,0,0.1c0,0,0,0-0.1,0L55,41.6c0,0,0.1,0,0.1,0c0,0,0.1,0,0.1,0l1.8,0.7l-0.1,0.3l-2.5-1L54.4,41.4
						C54.4,41.4,54.4,41.4,54.4,41.4z"/>
					<path class="st3" d="M56,36.7l0.3,0.1l-0.2,0.9l2.3,0.7l-0.1,0.4L56,38l-0.2,0.9l-0.3-0.1L56,36.7z"/>
					<path class="st3" d="M56.5,34.2l0.3,0.1l-0.2,1.3l0.9,0.2l0.2-1.1l0.3,0.1l-0.2,1.1l0.9,0.2l0.2-1.3l0.3,0.1l-0.3,1.7l-2.7-0.5
						L56.5,34.2z"/>
					<path class="st3" d="M58.2,32.8l1.1,0.1l0,0.4l-2.7-0.2l0.1-0.8c0-0.2,0-0.3,0.1-0.4c0-0.1,0.1-0.2,0.2-0.3
						c0.1-0.1,0.2-0.1,0.3-0.2c0.1,0,0.2,0,0.3,0c0.1,0,0.2,0,0.3,0.1s0.2,0.1,0.2,0.1c0.1,0.1,0.1,0.1,0.2,0.2
						c0,0.1,0.1,0.2,0.1,0.3c0,0,0.1-0.1,0.1-0.1l1.1-0.7l0,0.3c0,0.1,0,0.1-0.1,0.1l-1,0.6c0,0-0.1,0-0.1,0.1c0,0,0,0.1,0,0.1
						L58.2,32.8z M58,32.8l0-0.4c0-0.1,0-0.2,0-0.3c0-0.1-0.1-0.2-0.1-0.2c0-0.1-0.1-0.1-0.2-0.1c-0.1,0-0.1-0.1-0.2-0.1
						c-0.2,0-0.3,0-0.4,0.1C57,32,57,32.1,57,32.3l0,0.4L58,32.8z"/>
				</g>
			</g>
		</g>
		<path class="st0" d="M1.9,28.5c0,0.5-0.4,1-0.9,1c-0.5,0-0.9-0.4-0.9-1c0-0.5,0.4-1,0.9-1C1.5,27.5,1.9,28,1.9,28.5z"/>
		<path class="st4" d="M59.6,28.5c0,0.5-0.4,1-0.9,1c-0.5,0-0.9-0.4-0.9-1c0-0.5,0.4-1,0.9-1C59.1,27.5,59.6,28,59.6,28.5z"/>
		<path class="st5" d="M11.1,48c0.1,0.1,0.2,0.2,0.3,0.3c0.1-0.3,0.1-0.7,0.2-1C11.4,47.5,11.3,47.7,11.1,48z"/>
		<g>
			<path d="M49,45.5c-0.3-0.7-0.6-1.4-0.9-2.1c-0.5-0.9-1-1.7-1.6-2.5c-0.5-0.8-1.1-1.6-1.8-2.2c-0.1-0.1-0.3-0.3-0.2-0.6
				c0-0.7,0-1.4,0-2.2c0-1-0.2-2-0.5-3c-0.2-0.7-0.4-1.3-0.6-1.9c-0.2-0.8-0.6-1.6-1-2.3c-0.5-0.9-1.1-1.7-1.9-2.3
				c-0.5-0.4-1.1-0.6-1.8-0.7c-0.6-0.1-1.3,0-1.9,0.1c-0.3,0.1-0.6,0.2-0.9,0.4c-0.3,0.2-0.5,0.5-0.7,0.8C35,27.4,35,27.9,35,28.4
				c0,0.6,0.1,1.2,0.4,1.8c0.3,0.5,0.4,1.1,0.7,1.6c0.5,0.8,1.2,1.6,1.9,2.2c0.9,0.7,1.8,1.5,2.7,2.2c0.8,0.7,1.7,1.3,2.6,2
				c0.3,0.3,0.5,0.5,0.4,1c-0.2,0.7-0.3,1.5-0.4,2.3c-0.1-0.1-0.1-0.1-0.2-0.1c-0.8-0.7-1.5-1.5-2.3-2.2c-0.9-0.8-1.8-1.5-2.6-2.3
				c-0.7-0.7-1.4-1.5-1.9-2.3c-0.4-0.6-0.8-1.3-1.2-2c-0.4-0.8-0.7-1.6-1-2.5c-0.2-0.6-0.3-1.2-0.4-1.7c-0.1-0.5-0.1-0.9-0.2-1.4
				c-0.1-0.9-0.2-1.7-0.3-2.6c-0.1-0.6-0.1-1.2-0.1-1.8c0-1.7-0.1-3.5-0.1-5.2c0-1-0.1-2-0.2-2.9c0-0.5-0.1-1-0.2-1.5
				c-0.1-0.7-0.2-1.3-0.4-2c-0.2-0.9-0.5-1.8-0.9-2.6c-0.5-0.9-1-1.6-1.8-2.2c-0.2-0.2-0.5-0.3-0.8-0.4c0,0,0,0.1-0.1,0.1
				c0.2,0.2,0.5,0.3,0.7,0.5C30,6.7,30.6,7.3,31,8.1c0.4,0.7,0.7,1.5,0.9,2.3c0.2,0.6,0.3,1.2,0.4,1.8c0.1,0.8,0.3,1.5,0.3,2.3
				c0.1,1.2,0.1,2.3,0.1,3.5c0,2,0,4.1,0.1,6.2c0,0.5,0,0.9,0.1,1.4c0.1,0.6,0.2,1.3,0.3,1.9c0.1,0.4,0.1,0.9,0.2,1.3
				c0.2,0.9,0.4,1.7,0.7,2.5c0.2,0.6,0.5,1.2,0.7,1.7c0.3,0.7,0.7,1.3,1.1,1.9c0.9,1.3,1.9,2.4,3,3.4c0.6,0.5,1.1,1,1.7,1.5
				c0.9,0.7,1.7,1.5,2.4,2.4c0.1,0.1,0.1,0.2,0.1,0.3c-0.1,0.4-0.2,0.7-0.3,1.1c-0.2,0.6-0.5,1.3-0.8,1.9c-0.2,0.5-0.4,1-0.6,1.6
				c-0.2,0.6-0.4,1.1-0.6,1.7c-0.2,0.6-0.2,1.2-0.4,1.8c-0.1,0.6,0,1.1,0.5,1.5c0.6,0.5,1.5,0.5,2.1,0.1c0.5-0.4,0.9-0.9,1.2-1.5
				c0.5-1,0.9-2,1.1-3.1c0.2-1.1,0.1-2.2-0.3-3.3c-0.3-0.6-0.7-1.2-1-1.8c0-0.1-0.1-0.2-0.1-0.3c0.1-0.6,0.3-1.1,0.4-1.7
				c0.1-0.4,0.1-0.7,0.2-1.2c0.4,0.5,0.9,1,1.2,1.5c0.6,0.8,1.1,1.6,1.6,2.4c0.3,0.5,0.6,1.1,0.9,1.7c0.3,0.7,0.6,1.5,0.9,2.2
				c0,0,0,0,0,0c0.1-0.2,0.3-0.3,0.4-0.5C49.3,46.1,49.2,45.8,49,45.5z M43.9,43.6c0.2,0.6,0.5,1.2,0.7,1.9c0.1,0.5,0.1,1.1-0.1,1.6
				c-0.1,0.4-0.2,0.7-0.3,1.1c-0.2,0.7-0.5,1.5-0.9,2.1c-0.2,0.4-0.5,0.7-0.8,1c-0.3,0.3-0.6,0.4-1.1,0.1c-0.4-0.2-0.5-0.6-0.4-1
				c0.1-0.7,0.3-1.3,0.4-2c0.2-0.7,0.5-1.4,0.7-2.1c0.2-0.6,0.5-1.3,0.7-1.9c0.1-0.3,0.3-0.7,0.4-1c0-0.1,0.1-0.2,0.1-0.4
				C43.6,43.1,43.8,43.3,43.9,43.6z M43.8,37.6C43.8,37.6,43.8,37.6,43.8,37.6c-0.6-0.4-1.1-0.8-1.6-1.2c-0.7-0.5-1.4-1.1-2.1-1.6
				c-1-0.8-2-1.6-2.8-2.6c-0.5-0.6-0.9-1.3-1.2-2c-0.3-0.8-0.5-1.7-0.4-2.5c0.1-0.7,0.8-1.3,1.7-1.4c0.2,0,0.4-0.1,0.7-0.1
				c1.2,0,2.2,0.5,3,1.4c0.8,0.9,1.3,2,1.7,3.1c0.3,0.7,0.4,1.5,0.7,2.3C43.8,34.5,43.8,36,43.8,37.6z"/>
			<path d="M22.6,36.7c-0.4-0.9-1-1.8-1.7-2.5c-0.8-0.8-1.8-1.5-2.7-2.1c-1-0.7-2-1.3-2.8-2.2c-0.8-0.8-1.5-1.8-1.9-2.9
				c-0.3-0.8-0.5-1.6-0.5-2.5c0-0.8-0.1-1.7,0-2.5c0.1-0.8,0.4-1.6,0.6-2.4c0.3-1.1,1-2.1,1.8-2.9c1.1-1.1,2.3-2,3.5-3
				c0.7-0.6,1.4-1.1,2.1-1.7c0.6-0.5,1.2-1,1.8-1.5c0.8-0.7,1.5-1.4,2.1-2.2C25.4,7.7,25.8,7,26,6.3c0.1-0.5,0.1-1,0.2-1.5
				c0-0.1-0.1-0.2-0.1-0.3c0,0-0.1,0-0.1,0c0,0.1,0,0.3,0,0.4c-0.1,0.4-0.1,0.9-0.2,1.3c-0.4,1-1,1.8-1.7,2.6
				c-0.6,0.7-1.3,1.3-2,1.8c-1,0.8-1.9,1.6-2.9,2.3c-0.8,0.6-1.6,1.1-2.3,1.7c-0.9,0.7-1.8,1.5-2.5,2.4c-0.6,0.7-1,1.4-1.2,2.2
				c-0.2,0.7-0.4,1.4-0.5,2c-0.1,0.6-0.2,1.2-0.3,1.8c0,0.7,0,1.3,0.1,2c0.1,0.8,0.3,1.6,0.6,2.4c0.4,1,1,1.9,1.7,2.7
				c1,1.1,2.2,1.8,3.4,2.6c0.7,0.5,1.5,1.1,2.1,1.7c0.5,0.4,1,1,1.3,1.6c0.3,0.6,0.6,1.2,0.8,1.8c0.2,0.7,0.5,1.4,0.6,2.2
				c0.1,0.7,0.1,1.4-0.1,2.1c-0.1,0.4-0.2,0.8-0.4,1.1c-0.3,0.5-0.8,0.8-1.3,1.1c-0.8,0.5-1.9,0.1-2.3-0.7c-0.2-0.4-0.4-0.8-0.6-1.2
				c-0.2-0.5-0.3-1-0.4-1.5c-0.1-1.2-0.1-2.3-0.2-3.5c0-1-0.1-1.9-0.4-2.9c-0.3-0.9-0.8-1.7-1.4-2.5c-0.8-0.9-1.8-1.4-2.9-1.8
				c-0.4-0.1-0.8-0.3-1.2-0.3c-0.5-0.1-1.1-0.3-1.6-0.3c-0.6-0.1-1.3-0.1-1.9,0c-0.6,0.1-1.2,0.2-1.7,0.4c-0.8,0.4-1.5,1-1.8,2
				c-0.2,0.8-0.2,1.5,0.1,2.2c0.4,1,1.3,1.5,2.3,1.8c0.7,0.2,1.5,0.2,2.2-0.1c0.7-0.3,1.2-0.8,1.4-1.5c0.2-0.8,0-1.5-0.5-2.2
				c-0.2-0.2-0.4-0.3-0.5-0.5c0,0,0,0.1-0.1,0.1c0,0,0.1,0.1,0.1,0.1c0.4,0.3,0.7,0.7,0.9,1.2c0.1,0.5,0.1,1-0.1,1.5
				c-0.4,0.8-1,1.1-1.8,1.3c-0.4,0.1-0.9,0-1.4-0.1c-0.9-0.2-1.6-0.7-2.1-1.4c-0.5-0.8-0.5-1.7-0.1-2.6c0.6-1.2,1.7-1.7,3-1.8
				c1.1-0.1,2.1,0,3.1,0.2c0.9,0.2,1.7,0.5,2.5,0.9c1,0.5,1.9,1.2,2.5,2.2c0.6,1,0.8,2,0.9,3.1c0.1,0.9,0,1.8,0.1,2.6
				c0,0.6,0.1,1.3,0.1,1.9c0,0.7,0.3,1.4,0.5,2c0.2,0.6,0.6,1.2,1.1,1.6c0.5,0.4,1,0.7,1.6,0.6c0.5-0.1,1-0.3,1.5-0.7
				c0.9-0.6,1.4-1.5,1.6-2.5c0.2-1,0.1-2.1-0.1-3.1C23.2,38.2,22.9,37.4,22.6,36.7z"/>
			<path d="M26.5,10.3c-0.3,0.4-0.7,0.7-1.1,1c-0.2,0.1-0.3,0.2-0.5,0.2c-0.9-0.1-1.7,0-2.5,0.3c-0.9,0.3-1.6,0.8-2.2,1.6
				c-0.4,0.5-0.7,1-0.9,1.5c-0.2,0.5-0.4,1-0.6,1.5c-0.1,0.2-0.1,0.4-0.2,0.5c-0.2,0.2-0.4,0.4-0.7,0.6c-0.9,0.8-1.8,1.6-2.5,2.6
				c-0.5,0.6-0.8,1.3-1,2.1c-0.2,0.8-0.1,1.6,0.3,2.3c0.5,0.9,1.3,1.1,2.1,0.5c0.8-0.6,1.3-1.4,1.6-2.3c0.1-0.4,0.2-0.8,0.2-1.2
				c0.1-0.7,0.2-1.4,0.3-2.1c0.1-0.7,0.1-1.5,0.2-2.2c0-0.1,0-0.1,0.1-0.2c0.5-0.4,0.9-0.8,1.4-1.1c0.9-0.7,1.8-1.5,2.8-2.2
				c0.8-0.6,1.5-1.3,2.3-1.9c0.2,0.1,0.4,0.2,0.6,0.3c0.6,0.4,0.9,0.9,1,1.6c0.1,0.7-0.1,1.5-0.4,2.1c-0.7,1.2-1.9,1.8-3.2,1.7
				c-0.5,0-0.9-0.2-1.1-0.7c-0.1-0.2-0.1-0.8,0.1-0.9c0.2-0.1,0.4-0.1,0.6-0.2c0,0,0,0,0,0c-0.2-0.1-0.6,0-0.7,0.2
				c-0.3,0.4-0.2,1.3,0.4,1.5c0.5,0.3,1.1,0.3,1.7,0.2c0.7-0.1,1.3-0.4,1.8-0.9c0.8-0.7,1.2-1.6,1.2-2.7c0-0.2-0.1-0.5-0.1-0.7
				c-0.1-0.7-0.5-1.1-1.1-1.5c-0.1-0.1-0.3-0.2-0.4-0.2c0.1-0.1,0.2-0.2,0.3-0.3c0.6-0.6,1.2-1.3,1.7-2.1c0.5-0.8,0.9-1.6,0.9-2.5
				c0-0.4-0.1-0.7-0.2-1.1c0-0.2-0.1-0.3-0.2-0.5c0,0-0.1,0-0.1,0c0,0.1,0,0.3,0.1,0.4c0.2,0.7,0.2,1.4-0.1,2.1
				C27.8,8.7,27.2,9.5,26.5,10.3z M18.3,19.2c0,0.3-0.1,0.6-0.1,0.9c-0.1,0.5-0.1,1.1-0.2,1.6c-0.2,1-0.5,2.1-1.4,2.7
				c-0.2,0.2-0.5,0.3-0.7,0.4c-0.2,0-0.5-0.1-0.6-0.4c-0.4-0.6-0.5-1.3-0.4-2c0.2-1.3,1-2.2,1.9-3.1c0.5-0.6,1.1-1.1,1.7-1.7
				C18.3,18.3,18.3,18.7,18.3,19.2z M19.2,16.3C19.2,16.3,19.1,16.3,19.2,16.3c0.1-0.4,0.1-0.7,0.3-1c0.3-0.5,0.5-1,0.8-1.5
				c0.4-0.6,1-1.1,1.7-1.4c0.8-0.4,1.6-0.5,2.5-0.5c0.1,0,0.1,0,0.3,0C22.9,13.4,21,14.8,19.2,16.3z"/>
			<path d="M26.8,29.8c0-0.1-0.1-0.1-0.2-0.1c0.1-0.1,0.2-0.1,0.3-0.2c-0.1-0.1-0.2-0.1-0.3-0.1c0.1-0.1,0.2-0.3,0.4-0.4
				c0,0,0,0,0-0.1c-3,0.7-5.6-0.3-7.9-2.1c0,0.2-0.1,0.2,0.2,0.5c0.9,1,1.8,1.8,3.1,2.2c-0.8-0.1-1.5-0.4-2.1-0.8c0,0,0,0.1-0.1,0.1
				c0.2,0.2,0.4,0.4,0.6,0.6c0,0,0,0,0,0.1c-0.6-0.2-1.1-0.4-1.7-0.6c0.1,0.1,0.3,0.3,0.4,0.3c0.6,0.3,1.1,0.6,1.8,0.8
				c0.3,0.1,0.6,0.1,0.9,0.2c0.5,0.1,1,0.2,1.5,0.2c0.4,0,0.9,0,1.3,0c0.7,0,1.3-0.2,2-0.5C26.8,30,26.9,29.8,26.8,29.8z"/>
			<path d="M28.9,40.7c-0.6,0.2-1,0.7-1.4,1.2c-0.2,0.2-0.4,0.4-0.8,0.4c-0.4,0-0.7,0-1.1,0c0,0,0,0.1,0,0.1
				c0.1,0.1,0.2,0.2,0.3,0.2c0.4,0.2,0.9,0.3,1.3,0.3c0.6,0,1.3,0,1.9,0c0.2,0,0.4,0.1,0.6,0.1c0.3,0.1,0.6,0.3,0.9,0.4
				c0.7,0.2,1.3,0,1.9-0.2c0.1-0.1,0.2-0.1,0.3-0.2c0,0,0,0,0-0.1c-0.2,0-0.3,0-0.5,0.1c-0.6,0.2-1.2,0.2-1.7-0.2
				c-0.7-0.5-1.5-0.8-2.4-0.7c-0.1,0-0.2,0-0.3,0c0.2-0.1,0.3-0.2,0.4-0.3c0.4-0.3,0.8-0.6,1.3-0.6c0.3,0,0.7,0,1,0
				c1,0,1.9,0,2.9-0.1c0.4,0,0.7,0.1,1,0.3c0,0,0.1,0,0.1,0c0-0.1,0-0.1,0-0.1c-0.3-0.4-0.7-0.6-1.2-0.6c-0.6-0.1-1.2-0.1-1.8-0.2
				c-0.4,0-0.8,0-1.2-0.1C30,40.4,29.4,40.5,28.9,40.7z"/>
			<path d="M37.3,48.1c-0.9,0.7-1.9,1.4-2.8,2c-0.5,0.4-1.1,0.6-1.7,0.7C31.9,51,31,51,30.1,50.8c-0.8-0.2-1.6-0.6-2.3-1
				c-0.6-0.3-1.2-0.7-1.9-1c-0.3-0.1-0.6-0.2-0.9-0.3c0,0,0,0.1,0,0.1c0,0,0.1,0.1,0.1,0.1c0.3,0.2,0.5,0.4,0.8,0.5
				c1,0.6,1.9,1.3,3,1.8c0.7,0.3,1.4,0.5,2.1,0.5c0.7,0.1,1.4-0.1,2.1-0.2c0.8-0.2,1.5-0.6,2.1-1.1c0.6-0.5,1.2-1.1,1.9-1.6
				c0.3-0.2,0.5-0.5,0.8-0.7c0,0,0,0,0-0.1C37.6,47.9,37.5,48,37.3,48.1z"/>
			<path d="M23.8,22.4c0.7,0.3,1.5,0.7,2.2,1.1c0.5,0.3,1,0.6,1.4,0.9c0.4,0.2,0.7,0.5,1,0.8c0,0,0,0,0,0c-0.1-0.2-0.3-0.4-0.4-0.5
				c-0.7-0.8-1.6-1.4-2.5-2c-0.8-0.5-1.6-1-2.5-1.3c-0.4-0.1-0.8-0.2-1.2-0.4c-0.6-0.2-1.2-0.2-1.8,0.1c-0.1,0.1-0.2,0.2-0.4,0.3
				c0,0,0,0.1,0,0.1c0.1,0,0.2,0,0.3,0c0.2,0,0.4-0.1,0.5,0c0.4,0.1,0.8,0.1,1.1,0.2C22.5,21.9,23.2,22.1,23.8,22.4z"/>
			<path d="M34.3,44.7c-0.3,0.3-0.6,0.6-1,0.7c-0.5,0.1-0.9,0.2-1.4,0.2c-0.5,0-1-0.1-1.5-0.1c-0.6,0-1-0.3-1.4-0.7
				c-0.3-0.4-0.6-0.7-1-1c-0.2-0.2-0.4-0.4-0.8-0.4c0,0.1,0.1,0.2,0.1,0.3c0.4,0.5,0.7,0.9,1.1,1.4c0.6,0.8,1.3,1.2,2.3,1.2
				c0.4,0,0.9-0.1,1.4-0.1c0.3,0,0.7-0.1,1-0.2c0.4,0,0.7-0.2,1-0.5c0.3-0.3,0.6-0.7,0.8-1c0.1-0.2,0.3-0.3,0.4-0.5c0,0,0,0-0.1-0.1
				C34.9,44.1,34.6,44.4,34.3,44.7z"/>
			<path d="M23.9,27.4c1.1,0.2,2.1,0.5,3,1.1c0,0,0,0,0-0.1c-0.1-0.1-0.1-0.1-0.2-0.2c-0.5-0.3-1-0.7-1.5-1c-0.6-0.3-1.3-0.5-2-0.7
				c-0.4-0.1-0.9-0.1-1.4-0.1c-0.4,0-0.8,0.1-1.1,0.3c-0.1,0-0.1,0.1-0.2,0.2c0,0,0,0.1,0,0.1C21.7,27.1,22.8,27.2,23.9,27.4z"/>
			<path d="M33.1,42.7C33.1,42.7,33.1,42.7,33.1,42.7c0.4,0.2,0.8,0.2,1.2,0.3c0.5,0.1,0.9,0.2,1.4,0.3c0.5,0.1,1-0.2,1.5-0.4
				c0.1,0,0.1-0.2,0.1-0.2c0-0.1-0.1-0.2-0.2-0.2c-0.5,0-1-0.1-1.5-0.1c-0.4,0-0.8,0-1.2,0.1C33.9,42.5,33.5,42.6,33.1,42.7z"/>
			<path d="M28.2,37.6c0.2,0,0.4,0.1,0.6,0.1c0.4,0.1,0.8,0.2,1.2,0.3c0.2,0,0.3,0.1,0.5,0.2c-0.3-0.5-0.7-1-1.3-1.2
				c-0.4-0.1-0.7,0-1,0.1C28,37.3,28,37.6,28.2,37.6z"/>
			<path d="M33.7,37.9c0.1-0.1,0.2-0.2,0.3-0.4c-0.1-0.1-0.3-0.2-0.4-0.2c-0.1,0-0.1,0-0.2,0c-0.5,0.1-0.8,0.4-1.1,0.8
				C32.7,38.1,33.3,38.2,33.7,37.9z"/>
		</g>
	</g>
</g>
</svg>
