<?xml version="1.0" encoding="utf-8"?>
<!-- Generator: Adobe Illustrator 22.1.0, SVG Export Plug-In . SVG Version: 6.00 Build 0)  -->
<svg version="1.1" id="Layer_1" xmlns="http://www.w3.org/2000/svg" xmlns:xlink="http://www.w3.org/1999/xlink" x="0px" y="0px"
	 width="200px" height="180px"
	 viewBox="0 0 167 150" style="enable-background:new 0 0 167 150;" xml:space="preserve">
<style type="text/css">
	.st0{fill:#E6E7E8;}
	.st1{fill:#EC1C24;}
	.st2{fill:#003D68;}
	.st3{fill:#59C7DB;}
	.st4{fill:#52C5D7;}
	.st5{fill:#FFFFFF;}
</style>
<g>
	<circle class="st0" cx="76.7" cy="53.1" r="45.7"/>
	<path class="st1" d="M72.9,76.9c0,0-1.5-1.3-1.1-1.6c1.4-0.6,3.1-2.7,3.1-2.7l3.4-0.3l3.7,0.3l2,0.4l1.3,0.2c0,0,1.1,1.8,1.7,2.7
		c0.6,0.8-1.2,2.9-1.2,2.9l-2,2.2h-2.9l-3,0.4l-2.6-1.1l-1.6-2.2L72.9,76.9z"/>
	<g id="XMLID_4288_">
		<g>
			<g>
				<path class="st2" d="M28.8,43.1c0-0.1,0-0.2,0.1-0.4c0-0.1,0-0.2,0-0.3c0-0.1,0-0.2,0-0.3c0-0.1,0-0.2-0.1-0.3l-1-0.2l-0.2,0.7
					c0,0,0,0.1-0.1,0.1c0,0-0.1,0-0.1,0L27,42.4l0.3-1.5l1.8,0.4c0.1,0.1,0.1,0.3,0.1,0.4c0,0.1,0.1,0.3,0.1,0.4c0,0.2,0,0.3,0,0.5
					c0,0.2,0,0.4-0.1,0.6c-0.1,0.3-0.2,0.6-0.4,0.9c-0.2,0.3-0.4,0.5-0.7,0.6c-0.3,0.2-0.5,0.3-0.9,0.3c-0.3,0.1-0.7,0-1,0
					c-0.4-0.1-0.7-0.2-1-0.4c-0.3-0.2-0.5-0.4-0.7-0.6c-0.2-0.3-0.3-0.5-0.3-0.9s0-0.7,0-1c0-0.2,0.1-0.4,0.2-0.5
					c0.1-0.2,0.1-0.3,0.2-0.4c0.1-0.1,0.2-0.2,0.3-0.3c0.1-0.1,0.2-0.2,0.3-0.3l0.3,0.2c0.1,0.1,0.1,0.1,0.1,0.2c0,0,0,0.1-0.1,0.1
					c0,0-0.1,0.1-0.2,0.2c-0.1,0.1-0.1,0.1-0.2,0.2c-0.1,0.1-0.1,0.2-0.2,0.3c-0.1,0.1-0.1,0.3-0.1,0.5c-0.1,0.3-0.1,0.5,0,0.8
					c0,0.2,0.1,0.4,0.3,0.6c0.1,0.2,0.3,0.3,0.5,0.5c0.2,0.1,0.5,0.2,0.8,0.3c0.3,0.1,0.6,0.1,0.8,0c0.3,0,0.5-0.1,0.7-0.2
					c0.2-0.1,0.4-0.3,0.5-0.5C28.6,43.6,28.7,43.3,28.8,43.1z"/>
				<path class="st2" d="M25.1,36.8c0,0,0.1,0,0.1,0.1c0,0,0.1,0.1,0.1,0.1c0,0,0,0.1,0,0.1c0,0,0,0.1,0,0.1c0,0,0,0.1-0.1,0.1
					c0,0-0.1,0.1-0.1,0.1c0,0-0.1,0-0.1,0c0,0-0.1,0-0.1,0c0,0-0.1,0-0.1-0.1c0,0-0.1-0.1-0.1-0.1c0,0,0-0.1,0-0.1c0,0,0-0.1,0-0.1
					c0,0,0-0.1,0.1-0.1c0,0,0.1-0.1,0.1-0.1c0,0,0.1,0,0.1,0C25,36.8,25,36.8,25.1,36.8z M25.5,35.5c0,0,0.1,0,0.1,0.1
					c0,0,0.1,0.1,0.1,0.1c0,0,0,0.1,0,0.1c0,0,0,0.1,0,0.1c0,0,0,0.1-0.1,0.1c0,0-0.1,0.1-0.1,0.1c0,0-0.1,0-0.1,0c0,0-0.1,0-0.1,0
					c0,0-0.1,0-0.1-0.1c0,0-0.1-0.1-0.1-0.1c0,0,0-0.1,0-0.1c0,0,0-0.1,0-0.1c0,0,0-0.1,0.1-0.1c0,0,0.1-0.1,0.1-0.1
					c0,0,0.1,0,0.1,0C25.4,35.4,25.5,35.4,25.5,35.5z M30.1,38.1c0.1-0.2,0.1-0.4,0.1-0.5c0-0.2-0.1-0.3-0.1-0.5
					c-0.1-0.1-0.2-0.3-0.3-0.4c-0.1-0.1-0.3-0.2-0.5-0.3l-2.8-0.9l0.2-0.6l2.8,0.9c0.3,0.1,0.5,0.2,0.7,0.4c0.2,0.2,0.4,0.3,0.5,0.6
					c0.1,0.2,0.2,0.4,0.2,0.7c0,0.3,0,0.5-0.1,0.8c-0.1,0.3-0.2,0.5-0.4,0.7c-0.2,0.2-0.4,0.3-0.6,0.5c-0.2,0.1-0.5,0.2-0.7,0.2
					c-0.3,0-0.5,0-0.8-0.1l-2.8-0.9l0.2-0.6l2.8,0.9c0.2,0.1,0.4,0.1,0.6,0.1c0.2,0,0.3,0,0.5-0.1c0.2-0.1,0.3-0.2,0.4-0.3
					C29.9,38.5,30,38.3,30.1,38.1z"/>
				<path class="st2" d="M28.7,29.9l0.2,0.1c0.1,0,0.1,0.1,0.2,0.2l2.4,4.1l1.1-2.5l0.5,0.2l-1.5,3.3l-0.2-0.1
					c-0.1,0-0.1-0.1-0.2-0.1l-2.4-4.1l-1.1,2.5l-0.5-0.2L28.7,29.9z"/>
				<path class="st2" d="M31,25.8l0.5,0.3l-1.1,2l1.4,0.8l0.9-1.6l0.4,0.3l-0.9,1.6l1.4,0.8l1.1-2l0.5,0.3l-1.5,2.6l-4.2-2.4
					L31,25.8z"/>
				<path class="st2" d="M35.8,26.2l1.2-1.7l0.5,0.3L35.9,27l-4-2.7l0.4-0.5L35.8,26.2z"/>
				<path class="st2" d="M38.2,23l1.3-1.6l0.4,0.3l-1.7,2.1l-3.8-3.1l0.4-0.5L38.2,23z"/>
				<path class="st2" d="M37.1,16.3c0,0,0.1,0.1,0.1,0.1c0,0.1,0,0.1,0,0.2c0,0.1,0,0.1,0,0.2c0,0.1,0,0.1-0.1,0.1
					c0,0-0.1,0.1-0.1,0.1c-0.1,0-0.1,0-0.2,0c-0.1,0-0.1,0-0.2,0c-0.1,0-0.1,0-0.1-0.1c0,0-0.1-0.1-0.1-0.1c0,0,0-0.1,0-0.2
					c0-0.1,0-0.1,0-0.2c0-0.1,0-0.1,0.1-0.1c0,0,0.1-0.1,0.1-0.1c0.1,0,0.1,0,0.2,0c0.1,0,0.1,0,0.2,0C37,16.2,37.1,16.3,37.1,16.3z
					 M41.3,20.3l-0.4,0.5l-3.6-3.3l0.4-0.5L41.3,20.3z"/>
				<path class="st2" d="M41.1,16.5l0.2-0.2c0.1-0.1,0.1-0.1,0.1-0.2c0-0.1,0-0.1,0-0.2l-0.1-2.4c0-0.1,0-0.1,0-0.2
					c0,0,0.1-0.1,0.1-0.1l0.4-0.4l0.1,2.8c0,0.1,0,0.1,0,0.2c0,0.1,0,0.1,0,0.2c0.1,0,0.1,0,0.2,0c0.1,0,0.1,0,0.2,0l3,0.4l-0.4,0.4
					c0,0-0.1,0.1-0.1,0.1c0,0-0.1,0-0.1,0c0,0,0,0-0.1,0c0,0-0.1,0-0.1,0l-2.5-0.3c0,0-0.1,0-0.1,0c0,0-0.1,0-0.1,0c0,0-0.1,0-0.1,0
					c0,0-0.1,0.1-0.1,0.1l-0.2,0.2l1.5,1.6l-0.5,0.4l-3.3-3.6l0.5-0.4L41.1,16.5z"/>
				<path class="st2" d="M44.4,10.9l0.4-0.3c0,0,0.1,0,0.1,0c0,0,0.1,0,0.1,0l3.1,2c0.1,0,0.1,0.1,0.2,0.2c0.1,0.1,0.1,0.1,0.2,0.2
					c0-0.1-0.1-0.2-0.1-0.3c0-0.1-0.1-0.2-0.1-0.3l-0.8-3.6c0,0,0-0.1,0-0.1c0,0,0-0.1,0.1-0.1l0.4-0.3l1.2,5.1l-0.5,0.3L44.4,10.9z
					"/>
				<path class="st2" d="M52,6l0.3,0.5l-2,1.1L51,9l1.6-0.9l0.3,0.5l-1.6,0.9l0.8,1.4l2-1.1l0.3,0.5l-2.6,1.5l-2.4-4.2L52,6z"/>
				<path class="st2" d="M59.1,7.7c0.1,0,0.2-0.1,0.3-0.1c0.1-0.1,0.2-0.1,0.3-0.2c0.1-0.1,0.2-0.1,0.2-0.2C60,7.1,60,7,60.1,7
					l-0.4-1L59,6.2c0,0-0.1,0-0.1,0c0,0-0.1,0-0.1-0.1l-0.1-0.3l1.4-0.5L60.7,7c-0.1,0.1-0.2,0.2-0.3,0.4c-0.1,0.1-0.2,0.2-0.3,0.3
					c-0.1,0.1-0.3,0.2-0.4,0.3c-0.2,0.1-0.3,0.2-0.5,0.2c-0.3,0.1-0.7,0.2-1,0.2c-0.3,0-0.6-0.1-0.9-0.2c-0.3-0.1-0.5-0.3-0.7-0.5
					c-0.2-0.2-0.4-0.5-0.5-0.9c-0.1-0.3-0.2-0.7-0.2-1c0-0.3,0.1-0.6,0.2-0.9c0.1-0.3,0.3-0.5,0.5-0.8c0.2-0.2,0.5-0.4,0.9-0.5
					c0.2-0.1,0.4-0.1,0.5-0.2c0.2,0,0.3-0.1,0.5-0.1c0.2,0,0.3,0,0.4,0c0.1,0,0.3,0.1,0.4,0.1l-0.1,0.3c0,0.1,0,0.1-0.1,0.1
					c0,0-0.1,0-0.1,0c-0.1,0-0.1,0-0.2,0c-0.1,0-0.2,0-0.3,0c-0.1,0-0.2,0-0.4,0c-0.1,0-0.3,0.1-0.5,0.1c-0.3,0.1-0.5,0.2-0.6,0.4
					c-0.2,0.2-0.3,0.4-0.4,0.6c-0.1,0.2-0.1,0.4-0.1,0.7c0,0.3,0.1,0.5,0.2,0.8c0.1,0.3,0.3,0.5,0.4,0.7c0.2,0.2,0.4,0.3,0.6,0.4
					c0.2,0.1,0.4,0.1,0.7,0.2C58.6,7.8,58.8,7.8,59.1,7.7z"/>
				<path class="st2" d="M63.8,1.5L64,2.1l-2.2,0.6l0.4,1.6L64,3.7l0.1,0.5l-1.8,0.5l0.4,1.6L65,5.7l0.1,0.5L62.3,7L61,2.4L63.8,1.5
					z"/>
				<path class="st2" d="M66.1,1.1c0,0,0.1,0,0.1,0.1l3.4,3.1c0-0.1,0-0.1,0-0.2c0-0.1,0-0.1,0-0.2L69,0.6l0.6-0.1l0.8,4.8L70,5.3
					c-0.1,0-0.1,0-0.1,0c0,0-0.1,0-0.1-0.1l-3.4-3.1c0,0.1,0,0.1,0,0.2c0,0.1,0,0.1,0,0.1L67,5.8l-0.6,0.1l-0.8-4.8L66,1.1
					C66,1.1,66.1,1.1,66.1,1.1z"/>
				<path class="st2" d="M73.6,5.8C73.6,5.8,73.6,5.8,73.6,5.8c0.1,0,0.1,0,0.1,0c0,0,0.1,0,0.1,0c0,0,0.1,0,0.1,0
					c0.1,0,0.2,0,0.2-0.1c0,0,0.1-0.1,0.1-0.1c0,0,0-0.1,0-0.1c0,0-0.1-0.1-0.1-0.1c0,0-0.1,0-0.2,0c-0.1,0-0.1,0-0.2,0L73.7,5
					c-0.3,0-0.6-0.1-0.9-0.2c-0.3-0.1-0.5-0.3-0.7-0.5c-0.2-0.2-0.3-0.4-0.5-0.7c-0.1-0.3-0.2-0.6-0.2-0.9c0-0.4,0-0.7,0.1-1
					s0.2-0.6,0.5-0.8s0.4-0.4,0.7-0.6c0.3-0.1,0.6-0.2,1-0.2c0.4,0,0.7,0,0.9,0.1c0.3,0.1,0.5,0.2,0.7,0.4l-0.2,0.3c0,0,0,0-0.1,0.1
					c0,0,0,0-0.1,0c0,0-0.1,0-0.1,0c0,0-0.1,0-0.1-0.1c0,0-0.1-0.1-0.2-0.1c-0.1,0-0.1-0.1-0.2-0.1c-0.1,0-0.2,0-0.3-0.1
					c-0.1,0-0.2,0-0.4,0c-0.3,0-0.5,0.1-0.7,0.2c-0.2,0.1-0.4,0.2-0.5,0.4c-0.1,0.2-0.3,0.4-0.3,0.6c-0.1,0.2-0.1,0.5-0.1,0.8
					c0,0.3,0.1,0.6,0.2,0.8s0.2,0.4,0.4,0.6c0.2,0.2,0.3,0.3,0.6,0.3c0.2,0.1,0.4,0.1,0.7,0.1c0.1,0,0.3,0,0.4,0
					c0.1,0,0.2-0.1,0.3-0.1c0.1,0,0.2-0.1,0.3-0.2C75,4.1,75.1,4,75.2,3.9c0,0,0.1-0.1,0.1-0.1c0,0,0.1,0,0.1,0l0.3,0.3
					c-0.2,0.2-0.4,0.4-0.6,0.6C74.8,4.9,74.5,5,74.1,5l0,0.2c0.2,0,0.4,0.1,0.5,0.2c0.1,0.1,0.1,0.2,0.2,0.3c0,0.1,0,0.1,0,0.2
					c0,0.1-0.1,0.1-0.1,0.2c-0.1,0-0.1,0.1-0.2,0.1c-0.1,0-0.2,0-0.3,0.1c-0.1,0-0.2,0-0.3,0c-0.1,0-0.2,0-0.2-0.1L73.6,5.8
					C73.5,5.8,73.5,5.8,73.6,5.8z"/>
				<path class="st2" d="M77.7,4.3l2.1,0.1l0,0.6L77,4.9L77.1,0l0.7,0L77.7,4.3z"/>
				<path class="st2" d="M84.4,0.5l-0.1,0.5l-2.3-0.3l-0.2,1.6l1.9,0.2l-0.1,0.5l-1.9-0.2l-0.2,1.6l2.3,0.3l-0.1,0.5l-3-0.3l0.6-4.8
					L84.4,0.5z"/>
				<path class="st2" d="M85.8,6.6C85.8,6.6,85.8,6.6,85.8,6.6c0.1,0,0.1,0,0.1,0.1c0,0,0.1,0,0.1,0c0,0,0.1,0,0.1,0
					c0.1,0,0.2,0,0.2,0c0.1,0,0.1-0.1,0.1-0.1c0,0,0-0.1,0-0.1c0,0,0-0.1-0.1-0.1s-0.1-0.1-0.2-0.1c-0.1,0-0.1-0.1-0.2-0.1l0.2-0.4
					c-0.2-0.1-0.4-0.2-0.6-0.3C85.3,5.4,85.1,5.2,85,5l0.2-0.3c0,0,0,0,0.1,0c0,0,0.1,0,0.1,0c0,0,0.1,0,0.1,0.1
					c0,0.1,0.1,0.1,0.2,0.2C85.8,5,85.9,5.1,86,5.2c0.1,0.1,0.3,0.1,0.5,0.2c0.2,0,0.3,0,0.4,0c0.1,0,0.2-0.1,0.3-0.1
					c0.1-0.1,0.2-0.1,0.2-0.2c0.1-0.1,0.1-0.2,0.1-0.3c0-0.1,0-0.3,0-0.4c0-0.1-0.1-0.2-0.2-0.3c-0.1-0.1-0.2-0.2-0.3-0.2
					c-0.1-0.1-0.3-0.1-0.4-0.2c-0.1-0.1-0.3-0.2-0.4-0.2C86.1,3.2,86,3.1,85.9,3c-0.1-0.1-0.1-0.3-0.2-0.4c0-0.2,0-0.3,0-0.6
					c0-0.2,0.1-0.3,0.2-0.5c0.1-0.1,0.2-0.3,0.4-0.4c0.1-0.1,0.3-0.2,0.5-0.2c0.2,0,0.4,0,0.7,0c0.3,0.1,0.5,0.1,0.7,0.3
					c0.2,0.1,0.4,0.3,0.5,0.5l-0.2,0.3c0,0-0.1,0-0.1,0.1c0,0-0.1,0-0.1,0c0,0-0.1,0-0.1-0.1c0,0-0.1-0.1-0.2-0.2
					c-0.1-0.1-0.2-0.1-0.3-0.2c-0.1-0.1-0.2-0.1-0.4-0.1c-0.1,0-0.3,0-0.4,0c-0.1,0-0.2,0.1-0.3,0.1c-0.1,0.1-0.2,0.1-0.2,0.2
					c-0.1,0.1-0.1,0.2-0.1,0.3c0,0.1,0,0.2,0,0.4s0.1,0.2,0.2,0.3c0.1,0.1,0.2,0.2,0.3,0.2c0.1,0.1,0.3,0.1,0.4,0.2
					c0.1,0.1,0.3,0.2,0.4,0.2C87.8,3.6,88,3.7,88,3.8s0.2,0.2,0.2,0.4c0,0.1,0,0.3,0,0.5c0,0.2-0.1,0.4-0.2,0.6
					c-0.1,0.2-0.2,0.3-0.4,0.4c-0.2,0.1-0.4,0.2-0.6,0.2c-0.2,0-0.3,0-0.5,0l-0.1,0.2c0.2,0.1,0.3,0.2,0.4,0.3
					c0.1,0.1,0.1,0.2,0.1,0.3c0,0.1,0,0.1-0.1,0.2c0,0-0.1,0.1-0.2,0.1c-0.1,0-0.2,0-0.2,0c-0.1,0-0.2,0-0.3,0c-0.1,0-0.2,0-0.3-0.1
					c-0.1,0-0.1-0.1-0.2-0.1L85.8,6.6C85.7,6.6,85.7,6.6,85.8,6.6z"/>
				<path class="st2" d="M93.7,2.7l-0.2,0.5L92,2.8L90.8,7l-0.6-0.2l1.2-4.1l-1.5-0.4l0.2-0.5L93.7,2.7z"/>
				<path class="st2" d="M94.1,8.1l-0.6-0.2l1.7-4.6l0.6,0.2L94.1,8.1z M96.2,2.8c0,0.1,0,0.1-0.1,0.1C96.1,2.9,96,3,96,3
					c0,0-0.1,0-0.2,0c-0.1,0-0.1,0-0.2,0c-0.1,0-0.1,0-0.1-0.1c0,0-0.1-0.1-0.1-0.1c0,0,0-0.1,0-0.2c0-0.1,0-0.1,0-0.2
					c0-0.1,0-0.1,0.1-0.1c0,0,0.1-0.1,0.1-0.1c0,0,0.1,0,0.2,0c0.1,0,0.1,0,0.2,0c0.1,0,0.1,0,0.1,0.1c0,0,0.1,0.1,0.1,0.1
					c0,0,0,0.1,0,0.2C96.2,2.6,96.2,2.7,96.2,2.8z"/>
				<path class="st2" d="M97.2,7.2L96.4,9l-0.6-0.3l2.1-4.4l1.2,0.6c0.3,0.1,0.5,0.3,0.7,0.4c0.2,0.2,0.3,0.3,0.4,0.5
					c0.1,0.2,0.1,0.3,0.1,0.5c0,0.2-0.1,0.4-0.1,0.6c-0.1,0.2-0.2,0.3-0.3,0.4c-0.1,0.1-0.2,0.2-0.4,0.3S99.2,7.7,99,7.7
					c-0.2,0-0.3,0-0.5,0c0.1,0.1,0.1,0.2,0.1,0.3l0.5,2.3L98.5,10c-0.1-0.1-0.2-0.1-0.2-0.2l-0.4-2.1c0-0.1,0-0.1-0.1-0.2
					c0,0-0.1-0.1-0.2-0.1L97.2,7.2z M97.5,6.7L98.1,7c0.2,0.1,0.3,0.1,0.5,0.2c0.2,0,0.3,0,0.4,0c0.1,0,0.2-0.1,0.3-0.2
					c0.1-0.1,0.2-0.2,0.2-0.3c0.1-0.3,0.1-0.5,0-0.7c-0.1-0.2-0.3-0.4-0.7-0.6l-0.7-0.3L97.5,6.7z"/>
				<path class="st2" d="M103,10.7c0,0.1,0,0.1,0,0.2c0.1,0,0.1-0.1,0.2-0.1c0.1,0,0.1-0.1,0.2-0.1l3-1.7c0.1,0,0.1,0,0.1,0
					c0,0,0.1,0,0.1,0.1l0.4,0.3l-2.6,4.1l-0.5-0.3l1.9-3c0,0,0.1-0.1,0.1-0.1c0,0,0.1-0.1,0.1-0.1l-3,1.7c-0.1,0.1-0.2,0.1-0.3,0
					l-0.1,0c-0.1-0.1-0.1-0.1-0.1-0.3l0.2-3.5c0,0.1-0.1,0.1-0.1,0.2c0,0-0.1,0.1-0.1,0.1l-1.9,3l-0.5-0.3l2.6-4.1l0.4,0.3
					c0.1,0,0.1,0.1,0.1,0.1c0,0,0,0.1,0,0.1l-0.1,3.4C103,10.6,103,10.6,103,10.7z"/>
				<path class="st2" d="M110.9,12.4l-0.3,0.4l-1.8-1.4l-1,1.3l1.5,1.2l-0.3,0.4l-1.5-1.2l-1,1.3l1.8,1.4l-0.3,0.4l-2.4-1.9l3-3.8
					L110.9,12.4z"/>
				<path class="st2" d="M113.2,19c0,0.1-0.1,0.1-0.1,0.2c0.1,0,0.1-0.1,0.2-0.1c0.1,0,0.1,0,0.2-0.1l3.3-0.9c0.1,0,0.1,0,0.1,0
					c0,0,0.1,0,0.1,0.1l0.3,0.4l-3.5,3.3l-0.4-0.4l2.6-2.4c0,0,0.1-0.1,0.1-0.1c0,0,0.1-0.1,0.1-0.1l-3.4,0.9c-0.1,0-0.2,0-0.3-0.1
					l-0.1-0.1c-0.1-0.1-0.1-0.2-0.1-0.3l1.1-3.3c0,0-0.1,0.1-0.1,0.1c0,0-0.1,0.1-0.1,0.1l-2.6,2.4l-0.4-0.4l3.5-3.3l0.3,0.4
					c0,0,0.1,0.1,0.1,0.1c0,0,0,0.1,0,0.1l-1,3.3C113.2,18.9,113.2,18.9,113.2,19z"/>
				<path class="st2" d="M120.4,22.7L120,23l-1.4-1.9l-1.3,1l1.1,1.5l-0.4,0.3l-1.1-1.5l-1.3,1l1.4,1.9l-0.4,0.3l-1.8-2.4l3.9-2.9
					L120.4,22.7z"/>
				<path class="st2" d="M119.4,26.3l-1.7,1.1l-0.3-0.6l4.1-2.5l0.7,1.2c0.2,0.3,0.3,0.5,0.3,0.7c0.1,0.2,0.1,0.4,0.1,0.6
					c0,0.2-0.1,0.4-0.2,0.5c-0.1,0.1-0.2,0.3-0.4,0.4c-0.1,0.1-0.3,0.2-0.5,0.2c-0.2,0-0.3,0-0.5,0c-0.2,0-0.3-0.1-0.5-0.2
					c-0.1-0.1-0.3-0.2-0.4-0.3c0,0.1,0,0.2-0.1,0.3l-0.9,2.2l-0.3-0.5c-0.1-0.1-0.1-0.2,0-0.3l0.8-2c0-0.1,0-0.1,0-0.2
					c0-0.1,0-0.1-0.1-0.2L119.4,26.3z M119.8,26l0.4,0.6c0.1,0.2,0.2,0.3,0.3,0.4c0.1,0.1,0.2,0.2,0.4,0.2c0.1,0,0.2,0,0.4,0
					c0.1,0,0.3-0.1,0.4-0.1c0.2-0.2,0.4-0.3,0.4-0.6c0-0.2-0.1-0.5-0.3-0.8l-0.4-0.6L119.8,26z"/>
				<path class="st2" d="M122.5,30.3l0.1,0.2c0,0.1,0.1,0.1,0.1,0.2c0,0,0.1,0.1,0.2,0.1l2.4,0.7c0.1,0,0.1,0,0.2,0.1
					c0,0,0.1,0.1,0.1,0.1l0.2,0.5l-2.7-0.8c-0.1,0-0.1,0-0.2-0.1c-0.1,0-0.1,0-0.1-0.1c0,0.1,0,0.1,0,0.2c0,0.1,0,0.1-0.1,0.2
					l-1.2,2.7l-0.2-0.5c0,0,0-0.1,0-0.1c0,0,0-0.1,0-0.1c0,0,0,0,0-0.1c0,0,0,0,0-0.1l1-2.4c0,0,0-0.1,0-0.1c0,0,0-0.1,0-0.1
					c0,0,0-0.1,0-0.1c0,0,0-0.1-0.1-0.1l-0.1-0.3l-2,1l-0.3-0.6l4.4-2.1l0.3,0.6L122.5,30.3z"/>
				<path class="st2" d="M127.4,36.6l-0.5,0.2l-0.8-2.2l-1.5,0.6l0.6,1.8l-0.5,0.2l-0.6-1.8l-1.6,0.6l0.8,2.2l-0.5,0.2l-1-2.8
					l4.6-1.7L127.4,36.6z"/>
				<path class="st2" d="M128.8,41.6l-0.2,0.1c-0.1,0-0.2,0-0.2,0l-4.4-1.7l0.7,2.7l-0.5,0.1l-0.9-3.5l0.2-0.1c0.1,0,0.1,0,0.2,0
					l4.4,1.7l-0.7-2.6l0.5-0.1L128.8,41.6z"/>
				<path class="st2" d="M124.5,44.8l-0.1-0.6l4.8-0.9l0.1,0.6L124.5,44.8z M130.1,43.9c-0.1,0-0.1,0-0.2,0c-0.1,0-0.1,0-0.1-0.1
					c0,0-0.1-0.1-0.1-0.1c0,0-0.1-0.1-0.1-0.2c0-0.1,0-0.1,0-0.2c0-0.1,0-0.1,0.1-0.1c0,0,0.1-0.1,0.1-0.1c0,0,0.1-0.1,0.1-0.1
					c0.1,0,0.1,0,0.2,0s0.1,0,0.1,0.1c0,0,0.1,0.1,0.1,0.1s0.1,0.1,0.1,0.1c0,0.1,0,0.1,0,0.2c0,0.1,0,0.1-0.1,0.1
					c0,0-0.1,0.1-0.1,0.1C130.2,43.9,130.2,43.9,130.1,43.9z"/>
			</g>
		</g>
		<g>
			<g>
				<path class="st2" d="M23.9,57l4.8-0.4l0.1,1.5c0,0.3,0,0.6,0,0.8s-0.1,0.4-0.2,0.6c-0.1,0.1-0.2,0.3-0.4,0.3
					c-0.2,0.1-0.3,0.1-0.5,0.1c-0.1,0-0.2,0-0.3,0c-0.1,0-0.2-0.1-0.3-0.1c-0.1-0.1-0.2-0.2-0.3-0.3c-0.1-0.1-0.2-0.2-0.2-0.4
					c0,0.4-0.1,0.6-0.3,0.8c-0.2,0.2-0.4,0.3-0.7,0.3c-0.2,0-0.4,0-0.6-0.1c-0.2-0.1-0.3-0.2-0.5-0.3c-0.1-0.1-0.2-0.3-0.3-0.5
					c-0.1-0.2-0.1-0.4-0.2-0.7L23.9,57z M26.2,57.4l-1.7,0.2l0.1,1c0,0.2,0.1,0.3,0.1,0.5c0.1,0.1,0.1,0.2,0.2,0.3
					c0.1,0.1,0.2,0.1,0.3,0.2c0.1,0,0.2,0,0.4,0c0.2,0,0.4-0.1,0.6-0.3c0.1-0.2,0.2-0.5,0.1-0.8L26.2,57.4z M26.6,57.4l0.1,0.9
					c0,0.2,0.1,0.3,0.1,0.5c0.1,0.1,0.1,0.2,0.2,0.3c0.1,0.1,0.2,0.1,0.3,0.2c0.1,0,0.2,0,0.3,0c0.3,0,0.5-0.1,0.6-0.3
					c0.1-0.2,0.2-0.5,0.1-0.8l-0.1-0.9L26.6,57.4z"/>
				<path class="st2" d="M29.9,64.7l-0.5,0.1L29,62.5l-1.6,0.3l0.4,1.9l-0.5,0.1l-0.4-1.9l-1.6,0.3l0.5,2.3l-0.5,0.1l-0.6-2.9
					l4.8-0.9L29.9,64.7z"/>
				<path class="st2" d="M26.9,71.7l-0.2-0.5c0-0.1,0-0.1,0-0.1c0,0,0-0.1,0.1-0.1l1-0.8l-0.7-2.1L25.9,68c0,0-0.1,0-0.1,0
					s-0.1-0.1-0.1-0.1l-0.2-0.5l5.2,0.4l0.2,0.6L26.9,71.7z M27.7,68.1l0.5,1.7l1.7-1.3c0.1-0.1,0.2-0.2,0.4-0.3c-0.1,0-0.2,0-0.3,0
					c-0.1,0-0.2,0-0.2,0L27.7,68.1z"/>
				<path class="st2" d="M28.9,74.9c0.1,0.2,0.2,0.3,0.3,0.5c0.1,0.1,0.3,0.2,0.4,0.3c0.2,0.1,0.3,0.1,0.5,0.1
					c0.2,0,0.4-0.1,0.5-0.1l2.7-1.2l0.3,0.6l-2.7,1.2c-0.3,0.1-0.5,0.2-0.8,0.2c-0.3,0-0.5,0-0.7-0.1c-0.2-0.1-0.4-0.2-0.6-0.4
					c-0.2-0.2-0.3-0.4-0.5-0.7c-0.1-0.3-0.2-0.5-0.2-0.8c0-0.3,0-0.5,0.1-0.7c0.1-0.2,0.2-0.4,0.4-0.6c0.2-0.2,0.4-0.3,0.7-0.4
					l2.7-1.2l0.3,0.6l-2.7,1.2c-0.2,0.1-0.3,0.2-0.5,0.3c-0.1,0.1-0.2,0.3-0.3,0.4c-0.1,0.2-0.1,0.3-0.1,0.5
					C28.7,74.6,28.8,74.7,28.9,74.9z"/>
				<path class="st2" d="M36.2,79.5l-0.5,0.3L35,78.4l-3.7,2.2l-0.3-0.6l3.7-2.2l-0.8-1.4l0.5-0.3L36.2,79.5z"/>
				<path class="st2" d="M35.9,84.1l-1.5,1.2L34,84.7l1.5-1.2l1.3-3.2l0.3,0.5c0,0,0.1,0.1,0,0.1c0,0,0,0.1,0,0.1l-0.8,2
					c0,0.1-0.1,0.2-0.1,0.2c0,0.1-0.1,0.1-0.1,0.2c0.1,0,0.1,0,0.2-0.1c0.1,0,0.2,0,0.2,0l2.2-0.2c0,0,0.1,0,0.1,0
					c0,0,0.1,0,0.1,0.1l0.4,0.5L35.9,84.1z"/>
				<path class="st2" d="M41.3,92.8L41,92.4c0,0-0.1-0.1-0.1-0.1c0,0,0-0.1,0-0.1l0.5-1.2l-1.6-1.5L38.7,90c0,0-0.1,0-0.1,0
					c0,0-0.1,0-0.1-0.1l-0.4-0.4l4.8-2.1l0.5,0.5L41.3,92.8z M40.3,89.3l1.3,1.3l0.8-2c0-0.1,0.1-0.3,0.2-0.4
					c-0.1,0-0.2,0.1-0.2,0.1c-0.1,0-0.1,0.1-0.2,0.1L40.3,89.3z"/>
				<path class="st2" d="M46.2,90.5c0,0,0,0.1,0,0.1l0,4.6c0-0.1,0.1-0.1,0.1-0.1c0,0,0.1-0.1,0.1-0.1l2.1-2.7l0.5,0.3L46,96.5
					l-0.3-0.2c0,0-0.1-0.1-0.1-0.1c0,0,0-0.1,0-0.1l0-4.6c0,0-0.1,0.1-0.1,0.1c0,0-0.1,0.1-0.1,0.1l-2.1,2.8l-0.5-0.3l2.9-3.9
					L46.2,90.5C46.2,90.5,46.2,90.5,46.2,90.5z"/>
				<path class="st2" d="M53.1,98c-0.2,0.3-0.4,0.6-0.7,0.8c-0.3,0.2-0.5,0.3-0.8,0.4c-0.3,0.1-0.6,0.1-0.9,0
					c-0.3,0-0.6-0.2-0.9-0.3L48.2,98l2.5-4.2l1.6,0.9c0.3,0.2,0.6,0.4,0.8,0.6c0.2,0.2,0.3,0.5,0.4,0.8c0.1,0.3,0.1,0.6,0,0.9
					C53.4,97.4,53.3,97.7,53.1,98z M52.5,97.6c0.2-0.3,0.3-0.5,0.3-0.8c0-0.2,0-0.5,0-0.7c0-0.2-0.1-0.4-0.3-0.6
					c-0.1-0.2-0.3-0.3-0.5-0.5l-1-0.6l-1.9,3.3l1,0.6c0.2,0.1,0.5,0.2,0.7,0.2c0.2,0,0.4,0,0.7,0c0.2-0.1,0.4-0.2,0.6-0.3
					C52.2,98.1,52.3,97.9,52.5,97.6z"/>
				<path class="st2" d="M57.6,100.5l-0.7,1.9l-0.6-0.2l1.8-4.5l1.3,0.5c0.3,0.1,0.5,0.2,0.7,0.4c0.2,0.1,0.3,0.3,0.4,0.5
					c0.1,0.2,0.1,0.3,0.1,0.5c0,0.2,0,0.4-0.1,0.6c-0.1,0.2-0.1,0.3-0.2,0.4c-0.1,0.1-0.2,0.2-0.4,0.3c-0.1,0.1-0.3,0.1-0.5,0.1
					c-0.2,0-0.3,0-0.5,0c0.1,0.1,0.1,0.2,0.1,0.3l0.6,2.3l-0.5-0.2c-0.1,0-0.2-0.1-0.2-0.2l-0.6-2.1c0-0.1,0-0.1-0.1-0.2
					c0,0-0.1-0.1-0.2-0.1L57.6,100.5z M57.8,100.1l0.6,0.2c0.2,0.1,0.3,0.1,0.5,0.1c0.2,0,0.3,0,0.4-0.1c0.1,0,0.2-0.1,0.3-0.2
					c0.1-0.1,0.2-0.2,0.2-0.3c0.1-0.3,0.1-0.5,0-0.7c-0.1-0.2-0.4-0.4-0.7-0.5l-0.7-0.3L57.8,100.1z"/>
				<path class="st2" d="M65.8,100.2l-0.1,0.5l-2.3-0.6l-0.4,1.6l1.8,0.5l-0.1,0.5l-1.8-0.5l-0.4,1.6l2.3,0.6l-0.1,0.5l-2.9-0.8
					l1.3-4.7L65.8,100.2z"/>
				<path class="st2" d="M68.8,104c0,0.3-0.1,0.5-0.2,0.7c-0.1,0.2-0.2,0.4-0.4,0.5c-0.2,0.1-0.3,0.2-0.5,0.3c-0.2,0-0.4,0-0.7,0
					c-0.2,0-0.4-0.1-0.7-0.2c0-0.1,0-0.1,0.1-0.2c0-0.1,0-0.1,0.1-0.2c0,0,0-0.1,0.1-0.1c0,0,0.1,0,0.1,0c0,0,0.1,0,0.2,0.1
					c0.1,0,0.2,0.1,0.3,0.1c0.1,0,0.3,0,0.4,0c0.1,0,0.2-0.1,0.3-0.2c0.1-0.1,0.2-0.2,0.2-0.3c0.1-0.1,0.1-0.3,0.2-0.5l0.6-3.1
					l0.6,0.1L68.8,104z"/>
				<path class="st2" d="M73,105.6c0.2,0,0.4,0,0.5-0.1c0.2-0.1,0.3-0.1,0.4-0.3c0.1-0.1,0.2-0.3,0.3-0.4c0.1-0.2,0.1-0.3,0.1-0.6
					l0.2-2.9l0.7,0l-0.2,2.9c0,0.3-0.1,0.5-0.2,0.8c-0.1,0.2-0.2,0.4-0.4,0.6c-0.2,0.2-0.4,0.3-0.6,0.4c-0.2,0.1-0.5,0.1-0.8,0.1
					c-0.3,0-0.6-0.1-0.8-0.2c-0.2-0.1-0.4-0.3-0.6-0.5c-0.2-0.2-0.3-0.4-0.3-0.6c-0.1-0.2-0.1-0.5-0.1-0.8l0.2-2.9l0.7,0l-0.2,2.9
					c0,0.2,0,0.4,0,0.6c0,0.2,0.1,0.3,0.2,0.5c0.1,0.1,0.2,0.2,0.4,0.3C72.6,105.6,72.8,105.6,73,105.6z"/>
				<path class="st2" d="M76.7,101.5l0.5,0c0.1,0,0.1,0,0.1,0c0,0,0.1,0.1,0.1,0.1l1.5,3.4c0,0.1,0.1,0.2,0.1,0.2
					c0,0.1,0.1,0.2,0.1,0.3c0-0.1,0-0.2,0.1-0.3c0-0.1,0-0.2,0.1-0.3l1.2-3.5c0,0,0-0.1,0.1-0.1c0,0,0.1-0.1,0.1-0.1l0.5,0l-1.7,5
					l-0.6,0L76.7,101.5z"/>
				<path class="st2" d="M85.6,100.6l0.1,0.5l-2.3,0.4l0.3,1.6l1.9-0.3l0.1,0.5l-1.9,0.3l0.3,1.6l2.3-0.4l0.1,0.5l-3,0.5l-0.8-4.8
					L85.6,100.6z"/>
				<path class="st2" d="M87.9,100.1c0,0,0.1,0,0.1,0.1l3.7,2.8c0-0.1,0-0.1-0.1-0.2c0-0.1,0-0.1,0-0.2l-0.9-3.3l0.6-0.2l1.3,4.7
					l-0.3,0.1c-0.1,0-0.1,0-0.1,0c0,0-0.1,0-0.1-0.1l-3.7-2.8c0,0.1,0,0.1,0.1,0.2c0,0.1,0,0.1,0,0.1l0.9,3.3l-0.6,0.2l-1.3-4.7
					l0.3-0.1C87.8,100.1,87.8,100.1,87.9,100.1z"/>
				<path class="st2" d="M98.7,101.5l-0.5,0.2c-0.1,0-0.1,0-0.1,0c0,0-0.1,0-0.1-0.1l-0.9-0.9l-2,0.8l0,1.3c0,0,0,0.1,0,0.1
					c0,0-0.1,0.1-0.1,0.1l-0.5,0.2l0-5.2l0.6-0.3L98.7,101.5z M95,101l1.7-0.7l-1.5-1.5c-0.1-0.1-0.2-0.2-0.3-0.4c0,0.1,0,0.2,0,0.3
					c0,0.1,0,0.2,0,0.2L95,101z"/>
				<path class="st2" d="M100.7,95l0.3,0.5l-1.4,0.7l2,3.8l-0.6,0.3l-2-3.8l-1.4,0.7l-0.3-0.5L100.7,95z"/>
				<path class="st2" d="M105.3,97.8l-0.6,0.4l-2.6-4.1l0.6-0.4L105.3,97.8z"/>
				<path class="st2" d="M109.6,91.7c0.2,0.3,0.4,0.6,0.5,0.9s0.1,0.6,0.1,0.9c0,0.3-0.1,0.6-0.3,0.9c-0.2,0.3-0.4,0.5-0.7,0.7
					c-0.3,0.2-0.6,0.4-0.9,0.5c-0.3,0.1-0.6,0.1-0.9,0.1c-0.3,0-0.6-0.2-0.9-0.3c-0.3-0.2-0.5-0.4-0.7-0.7c-0.2-0.3-0.4-0.6-0.5-0.9
					c-0.1-0.3-0.1-0.6-0.1-0.9c0-0.3,0.1-0.6,0.3-0.9c0.2-0.3,0.4-0.5,0.7-0.7c0.3-0.2,0.6-0.4,0.9-0.5c0.3-0.1,0.6-0.1,0.9-0.1
					c0.3,0,0.6,0.2,0.9,0.3C109.2,91.2,109.4,91.4,109.6,91.7z M109.1,92.1c-0.2-0.2-0.4-0.4-0.6-0.6c-0.2-0.1-0.4-0.2-0.6-0.3
					c-0.2,0-0.4,0-0.7,0c-0.2,0.1-0.4,0.2-0.6,0.3c-0.2,0.2-0.4,0.3-0.5,0.5c-0.1,0.2-0.2,0.4-0.2,0.6c0,0.2,0,0.5,0.1,0.7
					c0.1,0.2,0.2,0.5,0.4,0.7c0.2,0.2,0.4,0.4,0.6,0.6c0.2,0.1,0.4,0.2,0.6,0.3c0.2,0,0.4,0,0.7,0c0.2-0.1,0.4-0.2,0.6-0.3
					c0.2-0.2,0.4-0.3,0.5-0.5c0.1-0.2,0.2-0.4,0.2-0.6c0-0.2,0-0.4-0.1-0.7C109.4,92.6,109.3,92.3,109.1,92.1z"/>
				<path class="st2" d="M109.8,88.3c0,0,0.1,0,0.1,0l4.6,0.6c0,0-0.1-0.1-0.1-0.1c0,0-0.1-0.1-0.1-0.1l-2.4-2.4l0.4-0.4l3.4,3.4
					l-0.2,0.2c0,0-0.1,0.1-0.1,0.1c0,0-0.1,0-0.1,0l-4.6-0.6c0,0,0.1,0.1,0.1,0.1c0,0,0.1,0.1,0.1,0.1l2.4,2.5l-0.4,0.4l-3.4-3.4
					l0.2-0.2C109.7,88.3,109.8,88.3,109.8,88.3z"/>
				<path class="st2" d="M120.2,82C120.2,81.9,120.2,81.9,120.2,82l0.5-0.1c0.1,0.3,0.1,0.6,0,0.9c-0.1,0.3-0.2,0.6-0.4,0.9
					c-0.2,0.3-0.4,0.5-0.7,0.7c-0.3,0.2-0.5,0.3-0.8,0.3c-0.3,0-0.6,0-0.9-0.1c-0.3-0.1-0.6-0.2-0.9-0.4c-0.3-0.2-0.5-0.5-0.7-0.7
					c-0.2-0.3-0.3-0.6-0.4-0.9c-0.1-0.3,0-0.6,0-0.9c0.1-0.3,0.2-0.6,0.4-0.9c0.2-0.3,0.4-0.5,0.7-0.7c0.2-0.1,0.5-0.2,0.8-0.3
					l0.1,0.3c0,0,0,0.1,0,0.1c0,0,0,0.1,0,0.1c0,0,0,0-0.1,0.1c0,0-0.1,0-0.1,0c-0.1,0-0.1,0-0.2,0.1c-0.1,0-0.1,0.1-0.2,0.1
					c-0.1,0-0.2,0.1-0.2,0.2c-0.1,0.1-0.2,0.2-0.2,0.3c-0.2,0.2-0.3,0.4-0.3,0.7c-0.1,0.2-0.1,0.5,0,0.7c0,0.2,0.1,0.4,0.3,0.6
					c0.1,0.2,0.3,0.4,0.6,0.6c0.2,0.2,0.5,0.3,0.7,0.4s0.5,0.1,0.7,0.1c0.2,0,0.4-0.1,0.6-0.2c0.2-0.1,0.4-0.3,0.5-0.5
					c0.1-0.1,0.2-0.2,0.2-0.3c0.1-0.1,0.1-0.2,0.1-0.3c0-0.1,0-0.2,0-0.3c0-0.1,0-0.2,0-0.3C120.1,82,120.1,82,120.2,82z"/>
				<path class="st2" d="M119.6,75.3l0.5,0.3l-1.1,2l1.4,0.8l0.9-1.7l0.5,0.3l-0.9,1.7l1.4,0.8l1.1-2l0.5,0.3l-1.5,2.6l-4.2-2.4
					L119.6,75.3z"/>
				<path class="st2" d="M120.6,73.3c0,0,0.1,0,0.1-0.1l4.5-1.2c-0.1,0-0.1,0-0.2-0.1c-0.1,0-0.1,0-0.2-0.1l-3.2-1.3l0.2-0.5
					l4.5,1.9l-0.1,0.3c0,0,0,0.1-0.1,0.1c0,0-0.1,0-0.1,0.1l-4.5,1.2c0.1,0,0.1,0,0.2,0.1c0.1,0,0.1,0,0.1,0.1l3.2,1.3l-0.2,0.5
					l-4.5-1.9l0.1-0.3C120.5,73.4,120.5,73.3,120.6,73.3z"/>
				<path class="st2" d="M123.4,65l0.5,0.2l-0.4,1.5l4.1,1.2l-0.2,0.6l-4.1-1.2l-0.4,1.5l-0.5-0.2L123.4,65z"/>
				<path class="st2" d="M124.3,60.5l0.5,0.1l-0.4,2.3l1.6,0.3l0.3-1.9l0.5,0.1l-0.3,1.9l1.6,0.3l0.4-2.3l0.5,0.1l-0.5,3l-4.8-0.8
					L124.3,60.5z"/>
				<path class="st2" d="M127.4,58.1l2,0.1l0,0.7l-4.8-0.3l0.1-1.4c0-0.3,0.1-0.6,0.1-0.8c0.1-0.2,0.2-0.4,0.3-0.5
					c0.1-0.1,0.3-0.2,0.4-0.3c0.2-0.1,0.4-0.1,0.6-0.1c0.2,0,0.3,0.1,0.5,0.1c0.1,0.1,0.3,0.2,0.4,0.3c0.1,0.1,0.2,0.2,0.3,0.4
					c0.1,0.2,0.1,0.3,0.2,0.5c0.1-0.1,0.1-0.1,0.2-0.2l2-1.3l0,0.6c0,0.1-0.1,0.2-0.2,0.3l-1.8,1.1c-0.1,0-0.1,0.1-0.1,0.1
					c0,0,0,0.1-0.1,0.2L127.4,58.1z M126.9,58.1l0-0.7c0-0.2,0-0.4,0-0.5c0-0.1-0.1-0.3-0.2-0.4c-0.1-0.1-0.2-0.2-0.3-0.2
					c-0.1-0.1-0.2-0.1-0.4-0.1c-0.3,0-0.5,0.1-0.7,0.2c-0.2,0.2-0.3,0.5-0.3,0.8L125,58L126.9,58.1z"/>
			</g>
		</g>
	</g>
	<path class="st3" d="M27.2,50.4c0,0.9-0.8,1.7-1.7,1.7c-0.9,0-1.7-0.8-1.7-1.7c0-0.9,0.8-1.7,1.7-1.7
		C26.4,48.7,27.2,49.5,27.2,50.4z"/>
	<path class="st4" d="M129.7,50.4c0,0.9-0.8,1.7-1.7,1.7c-0.9,0-1.7-0.8-1.7-1.7c0-0.9,0.8-1.7,1.7-1.7
		C128.9,48.7,129.7,49.5,129.7,50.4z"/>
	<g>
		<g>
			<path class="st3" d="M55.1,134.4c-0.5,1-1,2.1-1.5,3.3c-0.6,1.2-1.2,2.4-1.8,3.6c-0.7,1.2-1.4,2.3-2.1,3.4
				c-0.8,1.1-1.5,2-2.4,2.8c-0.8,0.8-1.7,1.4-2.5,1.8c-0.9,0.4-1.8,0.6-2.7,0.4c-1-0.1-1.8-0.5-2.3-1.1c-0.5-0.6-0.9-1.3-1.1-2.1
				c-0.2-0.8-0.3-1.7-0.2-2.6c0.1-0.9,0.2-1.8,0.3-2.6c-0.5,0.7-1,1.4-1.6,2.1c-0.6,0.7-1.3,1.4-2,2c-0.5,0.4-1.1,0.7-1.7,0.9
				c-0.7,0.2-1.3,0.3-2,0.3c-0.7,0-1.2-0.2-1.8-0.5c-0.5-0.3-0.9-0.8-1.1-1.4c-0.2-0.7-0.3-1.5-0.3-2.5c0-1,0.2-2,0.5-3.1
				c0.3-1.1,0.6-2.2,1.1-3.3c0.5-1.1,1-2.2,1.6-3.2c-0.4,0.2-0.8,0.4-1.3,0.6c-0.5,0.2-1,0.4-1.7,0.6c-1.2,0.3-2.5,0.3-3.7,0
				c-1.2-0.3-2.3-1-3.2-2c-0.7,0.1-1.4,0.2-2.1,0.4c-0.7,0.1-1.5,0.3-2.2,0.4c-1,0.1-2.1,0.3-3.3,0.4c-1.2,0.1-2.3,0.2-3.5,0.4
				c-1.2,0.2-2.3,0.5-3.4,0.8c-1.1,0.4-2.1,0.9-3,1.5c-0.5,0.4-0.9,0.8-1.4,1.3c-0.4,0.5-0.8,1-1.1,1.6c-0.3,0.6-0.5,1.2-0.6,1.8
				c-0.1,0.6-0.1,1.3,0.1,2c0.1,0.4,0.4,0.8,0.6,1.3c0.3,0.4,0.6,0.8,1,1.1c0.4,0.3,0.8,0.5,1.3,0.7c0.5,0.1,0.9,0.1,1.5-0.1
				c0.2-0.1,0.4-0.2,0.7-0.4c0.2-0.2,0.4-0.4,0.6-0.6c0.1-0.2,0.2-0.5,0.3-0.7c0-0.3-0.1-0.5-0.3-0.8c-0.3-0.3-0.5-0.5-0.7-0.4
				c-0.2,0-0.4,0-0.7,0c-0.3,0.2-0.6,0.3-0.9,0.3c-0.3,0-0.6-0.2-0.8-0.4c-0.2-0.3-0.3-0.6-0.2-0.9c0-0.3,0.2-0.6,0.5-0.7
				c0.4-0.3,0.8-0.4,1.2-0.2c0.5,0.2,0.9,0.4,1.2,0.5c0.5,0.3,0.9,0.7,1.2,1.1c0.3,0.4,0.5,0.8,0.5,1.2c0,0.4,0,0.8-0.2,1.1
				c-0.2,0.4-0.4,0.7-0.7,1c-0.3,0.3-0.7,0.6-1.1,0.7c-0.6,0.3-1.2,0.5-1.8,0.3c-0.6-0.1-1.2-0.4-1.7-0.7c-0.5-0.4-1-0.8-1.4-1.4
				c-0.4-0.6-0.7-1.1-0.8-1.7C0,142.1,0,141.3,0,140.6c0.1-0.7,0.3-1.4,0.6-2.1c0.3-0.7,0.7-1.3,1.2-1.9c0.5-0.6,1.1-1.1,1.7-1.6
				c0.9-0.7,2-1.2,3.1-1.6c1.1-0.4,2.3-0.6,3.4-0.8c1.2-0.2,2.4-0.3,3.6-0.4c1.2-0.1,2.4-0.2,3.5-0.4c0.7-0.1,1.3-0.2,2-0.3
				c0.7-0.1,1.3-0.2,2-0.4c-0.1-0.3-0.2-0.6-0.3-0.9c0-0.3,0-0.7,0-1c0-0.4,0.2-0.7,0.3-1c0.2-0.3,0.4-0.6,0.6-0.8
				c0.2-0.2,0.5-0.3,0.8-0.4c0.3-0.1,0.6-0.1,0.9-0.1c0.3,0,0.6,0.1,0.8,0.3c0.2,0.2,0.4,0.5,0.5,0.9c0.1,0.4,0.1,0.8-0.1,1.2
				c-0.1,0.4-0.3,0.7-0.5,1c-0.2,0.3-0.5,0.6-0.9,0.8c-0.3,0.2-0.7,0.4-1.1,0.6c0.8,0.8,1.7,1.3,2.8,1.5c1.1,0.2,2.2,0.1,3.3-0.2
				c1-0.2,2-0.7,2.9-1.3c0.9-0.7,1.7-1.3,2.6-2.1c0.9-0.9,1.9-1.4,2.9-1.6c1-0.2,1.9,0,2.9,0.8c0.2,0.1,0.3,0.3,0.3,0.5
				c0.1,0.2,0.1,0.3,0,0.5c-0.1,0.1-0.2,0.2-0.3,0.3c-0.2,0-0.4,0-0.7-0.2c-0.1-0.1-0.2-0.2-0.4-0.3c-0.2-0.1-0.5,0-0.8,0.1
				c-0.4,0.2-0.9,0.6-1.4,1.2c-0.5,0.6-1,1.3-1.5,2.1c-0.5,0.8-1,1.7-1.5,2.7c-0.5,1-1,1.9-1.3,2.9c-0.4,1-0.7,1.9-0.9,2.8
				c-0.2,0.9-0.4,1.7-0.4,2.3c0,0.7,0,1.1,0.2,1.4c0.2,0.3,0.4,0.5,0.6,0.5c0.3,0.1,0.5,0.1,0.8,0c0.3-0.1,0.5-0.1,0.6-0.2
				c0.6-0.3,1.2-0.7,1.8-1.2c0.6-0.5,1.1-1.1,1.6-1.7c0.5-0.6,1-1.3,1.4-1.9c0.4-0.7,0.8-1.3,1.2-1.9c0.4-0.6,0.7-1.2,0.9-1.7
				c0.3-0.5,0.4-0.9,0.6-1.1l2.7-7.9c0.1-0.2,0.3-0.4,0.6-0.6c0.2-0.1,0.4-0.3,0.8-0.4c0.3-0.1,0.7-0.1,1.1,0
				c0.4,0.1,0.7,0.3,0.9,0.5c0.2,0.2,0.3,0.5,0.3,0.7c0,0.3,0,0.6-0.1,0.9c-0.5,1.7-1,3.1-1.4,4.4c-0.4,1.3-0.8,2.4-1.1,3.4
				c-0.3,1-0.6,1.9-0.8,2.6c-0.2,0.7-0.4,1.4-0.6,2c0,0.2-0.1,0.5-0.2,1c-0.1,0.5-0.2,1-0.2,1.5c0,0.6,0,1.1,0.1,1.7
				c0.1,0.6,0.3,1,0.7,1.4c0.3,0.2,0.5,0.3,0.8,0.4c0.3,0.1,0.6,0.1,0.9,0.1c0.3,0,0.7-0.2,1.1-0.4c0.5-0.3,0.9-0.7,1.4-1.3
				c0.5-0.5,0.9-1.1,1.4-1.8c0.5-0.7,0.9-1.3,1.3-2.1c0.4-0.7,0.8-1.4,1.2-2.2c0.5-0.9,0.9-1.7,1.3-2.6c0.4-0.9,0.8-1.8,1.2-2.8
				L55.1,134.4z M22.4,128.1c-0.4,0.3-0.6,0.7-0.7,1.3c0,0.6,0,1,0.3,1.5v0c0.5-0.1,0.9-0.3,1.4-0.7c0.4-0.3,0.7-0.8,0.8-1.3
				c0.1-0.3,0.1-0.5,0-0.7c-0.1-0.2-0.2-0.3-0.4-0.4c-0.2-0.1-0.4-0.1-0.6-0.1C22.9,127.8,22.7,128,22.4,128.1z"/>
			<path class="st3" d="M75.2,134.4c-1.1,2.5-2.2,4.6-3.1,6.3c-1,1.7-1.9,3-2.7,4c-0.8,1-1.6,1.7-2.3,2.1c-0.7,0.4-1.3,0.6-1.9,0.6
				c-0.8,0-1.4-0.1-2-0.4c-0.6-0.3-1-0.7-1.4-1.1c-0.4-0.5-0.7-1-0.9-1.6c-0.2-0.6-0.4-1.2-0.5-1.9c-0.3-1.5-0.3-3.2-0.1-5.1
				c0.1-1.3,0.4-2.6,0.8-4.2c0.4-1.5,0.9-3.1,1.6-4.8c0.2-0.6,0.4-1.2,0.4-1.6c0-0.4,0-0.8-0.2-1.1c-0.2-0.3-0.5-0.4-1-0.4
				c-0.5,0.1-1.1,0.2-1.6,0.3c-0.5,0.1-1,0.1-1.6,0.2c-0.5,1.4-1.1,2.9-1.8,4.7c-0.7,1.7-1.6,3.7-2.6,5.9l-1-0.3
				c0.5-1,0.9-2.1,1.4-3.2c0.4-1,0.9-2.1,1.3-3.3c0.5-1.2,0.9-2.5,1.4-3.8c-0.8-0.1-1.5-0.3-2.2-0.6c-0.7-0.3-1.3-0.7-1.7-1.3
				c-0.5-0.5-0.8-1.2-1-1.9c-0.2-0.7-0.2-1.6,0-2.6c0.1-0.7,0.4-1.4,0.7-2.1c0.3-0.7,0.8-1.3,1.3-1.8c0.5-0.5,1.1-0.9,1.9-1.1
				c0.7-0.2,1.5-0.3,2.5-0.1c0.4,0.1,0.8,0.3,1,0.7c0.3,0.3,0.4,0.7,0.5,1.1c0.1,0.4,0.2,0.9,0.2,1.4c0,0.5,0,1-0.1,1.5
				c-0.1,0.6-0.2,1.4-0.4,2.2c-0.2,0.8-0.4,1.7-0.8,2.8c0.9,0.1,1.8,0.1,2.7-0.2c0.4-0.1,0.8-0.2,1.2-0.3c0.4-0.1,0.8-0.3,1.2-0.4
				c0.4-0.1,0.8-0.2,1.2-0.2c0.4,0,0.8,0,1.1,0c0.6,0.2,0.9,0.5,1,1.1c0.1,0.5,0.1,1.2-0.1,2.1c-0.2,0.8-0.4,1.8-0.8,2.8
				c-0.4,1.1-0.7,2.2-1.1,3.3v0c-0.1,0.2-0.2,0.7-0.4,1.5c-0.2,0.8-0.4,1.8-0.6,2.8c-0.2,1.1-0.3,2.2-0.3,3.5c0,1.2,0.1,2.3,0.3,3.4
				c0.1,0.5,0.3,0.9,0.6,1.3c0.3,0.3,0.6,0.5,1,0.6c0.5,0,1-0.1,1.5-0.6c0.5-0.4,1-1,1.5-1.7c0.5-0.7,1-1.5,1.5-2.3
				c0.5-0.8,0.9-1.7,1.3-2.5c0.2-0.5,0.5-0.9,0.7-1.4c0.2-0.4,0.4-0.8,0.5-1.1c0.2-0.4,0.3-0.7,0.4-1.1H75.2z M58.2,123.3
				c0.6-1.8,1-3.4,1.3-4.8c0-0.1,0.1-0.4,0.1-0.8c0-0.4,0-0.8-0.1-1.1c-0.1-0.4-0.2-0.7-0.4-1c-0.2-0.3-0.6-0.4-1-0.4
				c-0.8,0.2-1.4,0.7-1.8,1.5c-0.4,0.8-0.5,1.6-0.5,2.5c0,0.9,0.3,1.7,0.7,2.5C56.8,122.4,57.4,123,58.2,123.3z"/>
			<path class="st3" d="M86.9,141.5c0.5-0.4,1-0.9,1.5-1.5c0.5-0.6,0.9-1.2,1.3-1.8c0.4-0.6,0.7-1.3,1-2c0.3-0.7,0.6-1.3,0.7-1.8
				h1.1c-0.5,1.3-1.1,2.6-1.8,3.9c-0.7,1.3-1.7,2.4-2.9,3.4c-0.2,0.1-0.3,0.3-0.5,0.4c-0.2,0.1-0.3,0.2-0.5,0.3
				c-1.5,0.8-3.1,0.9-4.6,0.2c-0.2,0.5-0.5,1-0.8,1.6c-0.3,0.6-0.7,1.3-1.1,1.9c-0.4,0.6-0.9,1.2-1.4,1.8c-0.5,0.5-1,1-1.6,1.3
				c-0.6,0.3-1.2,0.4-1.8,0.4c-0.6,0-1.3-0.3-2-0.8c-0.7-0.7-1.1-1.7-1.2-2.8c-0.1-1.2-0.1-2.4,0-3.8c0.1-1.3,0.4-2.6,0.7-3.9
				c0.3-1.3,0.6-2.4,0.8-3.3c0.3-1.1,0.7-2.4,1.1-3.9c0.4-1.5,0.9-3.1,1.5-4.8c0.6-1.7,1.3-3.4,2-5.2c0.8-1.8,1.6-3.5,2.6-5.1
				c0.9-1.6,2-3.1,3.1-4.5c1.1-1.4,2.4-2.6,3.7-3.5c0.4-0.3,0.9-0.6,1.4-0.8c0.5-0.2,1.1-0.4,1.6-0.4c0.5,0,1,0.1,1.4,0.4
				c0.4,0.3,0.7,0.8,0.9,1.5c0.1,0.8,0,1.7-0.5,2.9c-0.5,1.2-1.1,2.5-2,3.9c-0.8,1.4-1.8,2.9-2.8,4.4c-1.1,1.5-2.1,2.9-3.2,4.2
				c-1.1,1.3-2,2.5-2.9,3.6c-0.9,1-1.6,1.8-2.1,2.3c-0.5,1.5-0.9,2.9-1.3,4.2c-0.4,1.3-0.8,2.4-1.1,3.5c-0.3,1.1-0.6,2.1-0.8,3.1
				c-0.2,1-0.4,2-0.6,3c0,0.1-0.1,0.4-0.1,0.8c0,0.4-0.1,0.8,0,1.2c0,0.4,0.1,0.7,0.2,1c0.1,0.3,0.4,0.4,0.7,0.3
				c0.4-0.1,0.8-0.5,1.2-0.9c0.4-0.5,0.7-1,1.1-1.6c0.3-0.6,0.6-1.2,0.9-1.8c0.3-0.6,0.5-1.1,0.7-1.5c-0.3-0.4-0.5-0.8-0.8-1.3
				c-0.2-0.5-0.4-1.2-0.5-1.9c-0.1-0.6-0.1-1.3-0.1-1.9c0-0.6,0.1-1.2,0.1-1.7c0.1-0.6,0.2-1.1,0.3-1.6c0.1-0.4,0.3-0.8,0.5-1.3
				c0.2-0.5,0.4-0.9,0.7-1.3c0.3-0.4,0.6-0.7,0.9-1c0.4-0.3,0.8-0.4,1.3-0.4c0.5,0.1,0.9,0.3,1.2,0.7c0.3,0.4,0.5,0.9,0.6,1.4
				c0.1,0.6,0.1,1.2,0.1,1.9c0,0.7-0.1,1.4-0.3,2.2c-0.3,1.7-0.8,3.6-1.6,5.7c0,0.1-0.1,0.3-0.2,0.5c-0.1,0.2-0.1,0.3-0.2,0.5
				c0.4,0.1,0.8,0.3,1.1,0.3c0.3,0.1,0.7,0.1,1,0.1c0.3,0,0.7-0.1,1-0.2C86.1,141.9,86.5,141.7,86.9,141.5z M81.1,139.9
				c0-0.1,0.1-0.4,0.2-0.8c0.1-0.5,0.3-1.1,0.4-1.7c0.2-0.7,0.3-1.4,0.5-2.1c0.1-0.7,0.2-1.4,0.3-2c0-0.6,0-1-0.1-1.3
				c-0.1-0.3-0.3-0.4-0.6-0.2c-0.5,0.3-0.8,0.8-1,1.5c-0.2,0.7-0.3,1.5-0.3,2.4c0,0.9,0,1.7,0.2,2.5C80.8,139,81,139.6,81.1,139.9z
				 M90.6,108.9c-0.9,0.4-1.6,1.1-2.4,2c-0.7,0.9-1.4,2-2,3.1c-0.6,1.2-1.2,2.4-1.7,3.7c-0.5,1.3-1,2.5-1.4,3.7
				c-0.4,1.2-0.8,2.3-1.2,3.2c-0.3,1-0.6,1.7-0.9,2.2c0.7-0.9,1.7-2.1,2.8-3.5c1.1-1.4,2.2-3,3.4-4.6c1.1-1.6,2.1-3.2,3-4.8
				c0.9-1.6,1.5-3.1,1.7-4.4c0-0.5-0.1-0.7-0.4-0.9C91.1,108.7,90.9,108.8,90.6,108.9z"/>
			<path class="st3" d="M109.8,134.4c-0.6,1.3-1.2,2.7-1.9,4c-0.6,1.2-1.3,2.4-2.2,3.8c-0.8,1.3-1.8,2.6-2.8,3.8
				c-1,1.2-2.2,2.1-3.4,2.9c-1.2,0.8-2.4,1.2-3.8,1.1c-0.9-0.1-1.7-0.3-2.4-0.6c-0.8-0.4-1.4-0.8-2-1.4c-0.6-0.6-1.1-1.2-1.5-2
				c-0.4-0.8-0.6-1.6-0.7-2.5c-0.1-1.3-0.1-2.7,0.2-4.2c0.3-1.5,0.7-3,1.4-4.4c0.6-1.4,1.5-2.7,2.5-3.8c1-1.2,2.2-2,3.6-2.6
				c0.8-0.4,1.6-0.5,2.4-0.5c0.8,0,1.4,0.2,2,0.6c0.5,0.4,0.9,0.9,1.2,1.6c0.2,0.7,0.3,1.6,0,2.6c-0.3,1.2-0.8,2.3-1.5,3
				c-0.7,0.8-1.5,1.4-2.3,1.8c-0.8,0.4-1.7,0.7-2.5,0.8c-0.8,0.1-1.5,0.1-2.1-0.1c-0.2-0.1-0.2-0.2-0.1-0.3c0.1-0.1,0.2-0.2,0.3-0.2
				c0.2,0,0.4,0,0.8,0c0.3,0,0.7-0.1,1.2-0.2c0.4-0.1,0.9-0.4,1.3-0.7c0.4-0.3,0.8-0.7,1.2-1.2c0.4-0.4,0.7-0.9,0.9-1.4
				c0.2-0.5,0.4-1,0.4-1.4c0-0.4,0-0.8-0.2-1.1c-0.2-0.3-0.5-0.5-1.1-0.5c-0.9,0.2-1.7,0.7-2.5,1.4c-0.8,0.8-1.4,1.7-2,2.8
				c-0.6,1.1-1,2.2-1.3,3.5c-0.3,1.3-0.5,2.5-0.4,3.6c0,1.2,0.3,2.2,0.7,3.2c0.4,0.9,1.1,1.6,2,2.1c0.2,0.1,0.5,0.2,0.9,0.3
				c0.4,0.1,1,0.1,1.6,0c0.6-0.1,1.3-0.4,2.2-0.9c0.8-0.5,1.7-1.2,2.6-2.2c0.9-1,1.9-2.4,3-4.1c1-1.7,2.1-3.9,3.2-6.5H109.8z"/>
			<path class="st3" d="M161,118.1c0.9-0.4,1.7-0.4,2.5-0.1c0.8,0.3,1.4,0.9,1.9,1.6c0.5,0.7,0.9,1.6,1.1,2.5c0.2,1,0.2,1.8-0.1,2.6
				c-0.3,1-0.8,1.9-1.4,2.7c-0.7,0.8-1.4,1.4-2.3,1.9c-0.9,0.5-1.8,0.9-2.8,1.2c-1,0.3-2,0.5-3.1,0.6c-2,0.2-3.9,0.4-5.9,0.5
				c-2,0.1-4,0.3-6,0.5c0.2,0.6,0.2,1.3,0.1,2c-0.1,0.7-0.5,1.2-1.1,1.7c-0.2,0.2-0.5,0.3-0.9,0.4c-0.3,0.1-0.7,0.1-1,0
				c-0.3-0.1-0.6-0.2-0.8-0.4c-0.2-0.2-0.4-0.5-0.4-0.9c-0.1-0.8,0.1-1.5,0.7-2.1c0.6-0.6,1.2-1,2-1.2c-0.9-1-1.8-1.6-3-1.8
				c-1.1-0.2-2.3-0.1-3.4,0.2c-1.1,0.4-2.1,1-3.1,1.8c-0.9,0.8-1.6,1.8-2.1,3c-0.5,1-1,2.2-1.5,3.3c-0.6,1.2-1.2,2.3-1.8,3.5
				c-0.7,1.2-1.3,2.3-2.1,3.3c-0.7,1-1.5,1.9-2.3,2.7c-0.8,0.8-1.6,1.3-2.5,1.7c-0.9,0.4-1.7,0.5-2.6,0.4c-0.6-0.1-1.2-0.3-1.8-0.7
				c-0.6-0.4-1.1-0.8-1.4-1.4c-0.4-0.8-0.5-1.6-0.5-2.7c0-1,0.1-2,0.3-3c0.2-1,0.4-1.8,0.6-2.6c0.2-0.7,0.4-1.2,0.4-1.3v0l4.1-12
				c0.1-0.3,0.1-0.6,0-0.6c-0.1-0.1-0.2-0.1-0.3-0.1c-0.2,0-0.3,0.1-0.5,0.2c-0.2,0.1-0.3,0.2-0.4,0.4c-0.1,0.1-0.2,0.2-0.3,0.4
				c-0.1,0.1-0.2,0.3-0.4,0.5c-0.2,0.2-0.4,0.5-0.6,0.9c-0.2,0.4-0.5,0.8-0.9,1.4c-1.8,2.9-3.4,5.4-4.6,7.4c-1.3,2-2.3,3.6-3.2,4.7
				c-0.3,0.4-0.6,0.7-0.9,0.9c-0.3,0.2-0.7,0.2-1.2,0.1c-0.3-0.2-0.6-0.5-0.7-0.8c-0.2-0.3-0.3-0.6-0.3-1c0-0.3-0.1-0.6-0.1-0.9
				c0-0.3,0-0.5,0.1-0.7c0-0.3,0.1-0.5,0.1-0.7c0.3-1,0.6-2,1-3c0.3-0.9,0.6-1.8,0.9-2.8c0.3-1,0.7-2,1-3c0.1-0.3,0.3-0.5,0.5-0.6
				c0.1,0,0.2-0.1,0.2-0.1c0.1,0,0.2-0.1,0.4-0.1c0.2,0,0.5,0,0.8,0c0.3,0,0.8,0,1.4,0c0.2,0,0.3,0.1,0.3,0.2c0,0.2,0.1,0.3,0,0.5
				c0,0.2-0.1,0.4-0.1,0.6c0,0.2-0.1,0.3-0.1,0.4l-1.9,5.3c0,0.2,0,0.3,0.1,0.2c0,0,0,0,0.1-0.1c0,0,0.1-0.2,0.3-0.4
				c0.1-0.2,0.4-0.6,0.7-1c0.3-0.5,0.7-1.1,1.3-2c0.6-0.8,1.3-1.9,2.1-3.2c0.9-1.3,1.9-2.8,3.1-4.7c0.3-0.5,0.8-0.9,1.3-1.3
				c0.5-0.4,1-0.6,1.6-0.7c0.5-0.1,1.1-0.1,1.6,0.1c0.5,0.2,0.9,0.5,1.3,1c0.2,0.4,0.3,0.8,0.3,1.3c0,0.5-0.1,0.9-0.2,1.4
				c-0.7,2.1-1.3,3.9-1.8,5.5c-0.5,1.6-1,3-1.3,4.2c-0.4,1.2-0.7,2.2-1,3.1c-0.3,0.9-0.5,1.6-0.7,2.2c0,0.2-0.1,0.5-0.2,1
				c-0.1,0.5-0.2,1-0.2,1.5c0,0.6,0,1.1,0.1,1.7c0.1,0.6,0.3,1,0.7,1.4c0.9,0.4,1.8,0.4,2.6,0.1c0.8-0.4,1.5-0.9,2.2-1.7
				c0.7-0.8,1.3-1.7,1.9-2.7c0.6-1,1.1-2,1.5-2.9c0.5-0.9,0.9-1.7,1.3-2.6c0.4-0.9,0.8-1.8,1.2-2.8c0.3-0.8,0.8-1.5,1.5-2.2
				c0.6-0.7,1.3-1.3,2.1-1.8c0.8-0.5,1.6-0.9,2.5-1.1c0.9-0.3,1.8-0.4,2.6-0.3c0.9,0,1.7,0.3,2.5,0.7c0.8,0.4,1.5,1.1,2.1,1.9
				c1-0.2,2-0.3,3-0.4c1-0.1,2-0.2,3-0.2c1-0.1,2-0.1,3.1-0.2c1-0.1,2.1-0.2,3.1-0.3c0.9-0.1,1.8-0.3,2.7-0.6
				c0.9-0.3,1.8-0.6,2.6-1.1c0.8-0.5,1.5-1,2.2-1.7c0.6-0.7,1.1-1.5,1.4-2.5c0.1-0.5,0.2-1.2,0-1.9c-0.1-0.7-0.4-1.4-0.7-2
				c-0.4-0.6-0.8-1.1-1.4-1.4c-0.6-0.3-1.3-0.4-2-0.1c-0.2,0.1-0.4,0.2-0.7,0.4c-0.2,0.2-0.4,0.4-0.6,0.6c-0.2,0.2-0.2,0.5-0.3,0.7
				c0,0.3,0.1,0.5,0.3,0.8c0.1,0.2,0.3,0.4,0.5,0.5c0.2,0.1,0.5,0.1,0.7,0h0.1c0.3-0.2,0.6-0.2,0.9-0.2c0.3,0,0.6,0.2,0.8,0.5
				c0.2,0.3,0.3,0.6,0.2,0.9c-0.1,0.3-0.2,0.6-0.5,0.7c-0.2,0.1-0.4,0.2-0.6,0.2c-0.2,0-0.4,0-0.6-0.1c-0.2-0.1-0.4-0.2-0.6-0.3
				c-0.2-0.1-0.4-0.2-0.5-0.3c-0.2-0.1-0.4-0.3-0.6-0.5c-0.2-0.2-0.4-0.4-0.5-0.6c-0.3-0.4-0.4-0.8-0.4-1.2c0-0.4,0.1-0.8,0.3-1.1
				c0.2-0.4,0.5-0.7,0.8-1C160.2,118.5,160.6,118.3,161,118.1z M143.4,135.3c0.2-0.1,0.3-0.3,0.5-0.5c0.1-0.2,0.2-0.5,0.3-0.8
				c0.1-0.3,0.1-0.6,0.1-0.8c0-0.3-0.1-0.5-0.3-0.6c-0.5,0.1-1,0.3-1.4,0.6c-0.5,0.3-0.7,0.7-0.9,1.3c0,0.3,0,0.5,0.1,0.7
				c0.1,0.2,0.2,0.3,0.4,0.4c0.2,0.1,0.4,0.1,0.6,0.1C143,135.6,143.2,135.5,143.4,135.3z"/>
		</g>
	</g>
	<path class="st5" d="M43.5,84.9c0.2,0.2,0.3,0.3,0.5,0.5c0.1-0.6,0.2-1.2,0.4-1.7C44.1,84.1,43.8,84.5,43.5,84.9z"/>
	<g>
		<path d="M111,80.5c-0.6-1.2-1-2.5-1.6-3.7c-0.8-1.5-1.8-2.9-2.8-4.4c-0.9-1.5-2-2.8-3.2-4c-0.3-0.3-0.5-0.5-0.4-1
			c0.1-1.3,0-2.6,0-3.8c0-1.8-0.4-3.6-0.9-5.4c-0.3-1.2-0.7-2.3-1.1-3.5c-0.4-1.4-1.1-2.8-1.8-4.1c-0.9-1.6-1.9-3-3.4-4.1
			c-0.9-0.7-2-1.1-3.1-1.3c-1.1-0.2-2.3-0.1-3.4,0.2c-0.5,0.2-1.1,0.4-1.5,0.7c-0.5,0.4-1,0.9-1.3,1.5C86,48.5,86,49.4,86,50.2
			c0,1.1,0.2,2.1,0.6,3.1c0.4,0.9,0.8,1.9,1.3,2.7c0.9,1.5,2.1,2.8,3.4,3.9c1.6,1.3,3.2,2.6,4.8,3.8c1.5,1.2,3,2.3,4.6,3.5
			c0.6,0.5,1,0.9,0.7,1.8c-0.4,1.3-0.5,2.7-0.8,4.1c-0.2-0.1-0.2-0.1-0.3-0.2c-1.3-1.3-2.7-2.6-4-3.8c-1.5-1.4-3.1-2.7-4.6-4.1
			c-1.3-1.2-2.5-2.6-3.4-4.1c-0.7-1.1-1.4-2.3-2-3.5c-0.8-1.4-1.3-2.9-1.7-4.4c-0.3-1-0.6-2-0.8-3.1c-0.2-0.8-0.2-1.6-0.3-2.4
			c-0.2-1.5-0.4-3.1-0.5-4.7c-0.1-1-0.1-2.1-0.1-3.1c-0.1-3.1-0.1-6.2-0.2-9.2c-0.1-1.7-0.2-3.5-0.3-5.2c-0.1-0.9-0.2-1.8-0.3-2.6
			c-0.2-1.2-0.4-2.4-0.6-3.5c-0.4-1.6-0.9-3.1-1.7-4.6c-0.8-1.5-1.8-2.9-3.3-3.9c-0.4-0.3-0.9-0.5-1.3-0.7c0,0.1-0.1,0.1-0.1,0.2
			c0.4,0.3,0.9,0.5,1.3,0.9c1.1,0.9,2,2,2.7,3.3c0.7,1.3,1.2,2.6,1.6,4c0.3,1,0.5,2.1,0.6,3.2c0.2,1.3,0.5,2.7,0.5,4
			c0.1,2.1,0.2,4.1,0.2,6.2c0.1,3.6,0.1,7.3,0.1,10.9c0,0.8,0,1.7,0.1,2.5c0.1,1.1,0.3,2.2,0.5,3.3c0.1,0.8,0.2,1.5,0.4,2.2
			c0.4,1.5,0.7,3,1.2,4.5c0.3,1,0.8,2,1.3,3c0.6,1.2,1.2,2.3,1.9,3.4c1.5,2.2,3.3,4.2,5.4,6c1,0.9,2,1.8,3,2.7
			c1.5,1.3,3,2.6,4.2,4.2c0.1,0.1,0.2,0.3,0.1,0.5c-0.2,0.6-0.4,1.3-0.6,1.9c-0.4,1.1-0.9,2.3-1.4,3.4c-0.4,0.9-0.7,1.9-1,2.8
			c-0.3,1-0.8,2-1,3c-0.3,1-0.4,2.1-0.6,3.2c-0.2,1,0.1,1.9,0.9,2.6c1,0.9,2.7,0.9,3.7,0.2c0.9-0.7,1.5-1.6,2.1-2.6
			c1-1.7,1.6-3.6,2-5.6c0.4-2,0.2-4-0.6-5.8c-0.5-1.1-1.2-2.1-1.8-3.2c-0.1-0.1-0.1-0.4-0.1-0.5c0.2-1,0.5-2,0.7-3
			c0.1-0.6,0.2-1.3,0.4-2.1c0.8,1,1.5,1.8,2.2,2.7c1,1.4,2,2.8,2.9,4.3c0.6,1,1.1,2,1.5,3c0.6,1.3,1.2,2.6,1.6,4c0,0,0,0.1,0,0.1
			c0.2-0.3,0.5-0.6,0.7-0.8C111.5,81.7,111.3,81.1,111,80.5z M101.8,77.1c0.4,1.1,0.9,2.2,1.2,3.4c0.2,0.9,0.2,1.9-0.1,2.8
			c-0.2,0.6-0.3,1.3-0.5,1.9c-0.4,1.3-0.8,2.6-1.6,3.8c-0.4,0.6-0.9,1.2-1.4,1.8c-0.5,0.5-1.1,0.7-2,0.2c-0.6-0.4-0.9-1-0.8-1.8
			c0.2-1.2,0.5-2.4,0.8-3.5c0.4-1.3,0.9-2.5,1.3-3.7c0.4-1.1,0.9-2.3,1.3-3.4c0.2-0.6,0.5-1.2,0.8-1.8c0.1-0.2,0.1-0.4,0.2-0.8
			C101.4,76.4,101.7,76.7,101.8,77.1z M101.6,66.6C101.6,66.6,101.6,66.6,101.6,66.6c-1-0.7-1.9-1.4-2.9-2.1c-1.3-1-2.5-1.9-3.8-2.9
			c-1.8-1.4-3.5-2.8-5-4.6c-0.9-1.1-1.6-2.3-2.2-3.6c-0.6-1.4-1-3-0.6-4.5c0.2-1.2,1.4-2.3,2.9-2.4c0.4,0,0.8-0.2,1.2-0.2
			c2.2,0,3.9,0.9,5.3,2.6c1.4,1.6,2.3,3.5,3,5.5c0.5,1.3,0.8,2.7,1.2,4C101.7,61.1,101.8,63.8,101.6,66.6z"/>
		<path d="M64,64.9c-0.7-1.7-1.7-3.2-3-4.5c-1.4-1.5-3.1-2.6-4.8-3.8c-1.7-1.2-3.5-2.4-5-3.8c-1.5-1.5-2.6-3.2-3.3-5.1
			c-0.5-1.4-0.9-2.9-0.9-4.4c0-1.5-0.1-2.9,0.1-4.4c0.2-1.4,0.6-2.8,1-4.2c0.6-2,1.7-3.6,3.2-5.1c1.9-1.9,4-3.6,6.2-5.3
			c1.2-1,2.5-1.9,3.7-2.9c1.1-0.9,2.1-1.8,3.2-2.7c1.4-1.2,2.6-2.5,3.8-4c0.9-1.1,1.5-2.3,1.9-3.7c0.2-0.9,0.2-1.8,0.3-2.7
			c0-0.2-0.1-0.3-0.2-0.5c0,0-0.1,0-0.1,0c0,0.2,0,0.5,0,0.7c-0.1,0.8-0.2,1.6-0.4,2.3c-0.6,1.7-1.7,3.2-3,4.5
			c-1.1,1.2-2.3,2.2-3.5,3.2c-1.7,1.4-3.5,2.7-5.2,4.1c-1.4,1-2.8,2-4.1,3.1c-1.6,1.3-3.1,2.7-4.5,4.2c-1,1.2-1.7,2.5-2.2,3.9
			c-0.4,1.2-0.7,2.4-0.9,3.6c-0.2,1.1-0.4,2.1-0.4,3.2c0,1.2,0,2.3,0.2,3.5c0.2,1.5,0.6,2.9,1.1,4.3c0.7,1.8,1.7,3.4,3,4.7
			c1.8,1.9,3.9,3.2,6,4.7c1.3,0.9,2.6,1.9,3.8,3c0.9,0.8,1.7,1.7,2.2,2.8c0.5,1.1,1.1,2.1,1.5,3.2c0.4,1.2,0.8,2.5,1,3.8
			c0.2,1.2,0.2,2.5-0.2,3.7c-0.2,0.7-0.4,1.3-0.8,1.9c-0.6,0.8-1.4,1.5-2.2,2c-1.3,0.9-3.4,0.2-4.1-1.2c-0.3-0.7-0.7-1.4-1-2.1
			c-0.4-0.9-0.6-1.8-0.7-2.7c-0.2-2.1-0.2-4.1-0.3-6.2c0-1.7-0.2-3.4-0.7-5.1c-0.5-1.6-1.3-3.1-2.5-4.4c-1.4-1.5-3.2-2.5-5.1-3.1
			c-0.7-0.2-1.4-0.4-2.1-0.6c-1-0.2-1.9-0.5-2.9-0.5c-1.1-0.1-2.3-0.1-3.4,0c-1,0.1-2.1,0.3-3,0.8c-1.5,0.7-2.6,1.8-3.1,3.5
			c-0.4,1.3-0.4,2.6,0.2,3.9c0.8,1.7,2.3,2.7,4,3.1c1.3,0.3,2.6,0.4,3.9-0.2c1.2-0.5,2.1-1.4,2.4-2.7c0.4-1.4,0.1-2.7-0.9-3.8
			c-0.3-0.3-0.6-0.6-0.9-0.9c0,0.1-0.1,0.1-0.1,0.2c0.1,0.1,0.1,0.1,0.2,0.2c0.7,0.6,1.3,1.3,1.6,2.2c0.3,0.9,0.2,1.8-0.2,2.6
			c-0.6,1.4-1.8,2-3.2,2.2c-0.8,0.1-1.6,0.1-2.4-0.1c-1.6-0.4-2.8-1.2-3.7-2.5c-0.9-1.5-0.9-3.1-0.1-4.6c1.1-2.1,3.1-3,5.4-3.3
			c1.9-0.2,3.7,0,5.6,0.4c1.5,0.4,3,0.8,4.4,1.5c1.8,0.9,3.3,2.2,4.4,3.9c1,1.7,1.4,3.6,1.6,5.5c0.1,1.5,0.1,3.1,0.1,4.7
			c0,1.1,0.2,2.3,0.2,3.4c0,1.3,0.5,2.4,0.9,3.6c0.4,1.1,1.1,2,1.9,2.9c0.8,0.8,1.8,1.2,2.9,1c1-0.1,1.8-0.6,2.6-1.2
			c1.5-1.1,2.5-2.6,2.8-4.4c0.3-1.8,0.2-3.7-0.2-5.5C65.1,67.6,64.6,66.2,64,64.9z"/>
		<path d="M70.9,18.2c-0.6,0.6-1.3,1.2-1.9,1.8c-0.3,0.3-0.6,0.4-1,0.3c-1.5-0.1-3,0-4.5,0.5c-1.6,0.5-2.9,1.5-3.9,2.8
			c-0.6,0.8-1.2,1.7-1.7,2.7c-0.4,0.9-0.7,1.8-1,2.7c-0.1,0.3-0.1,0.7-0.3,0.9c-0.3,0.4-0.8,0.8-1.2,1.1c-1.6,1.4-3.2,2.9-4.5,4.6
			c-0.9,1.1-1.5,2.4-1.8,3.7c-0.3,1.4-0.1,2.8,0.5,4.1c0.8,1.6,2.4,1.9,3.8,0.9c1.4-1,2.3-2.4,2.8-4.1c0.2-0.7,0.3-1.4,0.4-2.1
			c0.2-1.2,0.3-2.4,0.5-3.7c0.1-1.3,0.2-2.6,0.3-3.9c0-0.1,0.1-0.2,0.2-0.3c0.8-0.7,1.6-1.4,2.4-2c1.6-1.3,3.3-2.6,4.9-3.9
			c1.4-1.1,2.7-2.3,4-3.4c0.4,0.2,0.7,0.4,1.1,0.6c1.1,0.6,1.7,1.6,1.8,2.8c0.2,1.3-0.1,2.6-0.8,3.8c-1.2,2.2-3.3,3.2-5.7,2.9
			c-0.8-0.1-1.5-0.3-1.9-1.2c-0.2-0.4-0.2-1.3,0.2-1.6c0.3-0.2,0.7-0.3,1.1-0.4c0,0,0,0,0-0.1c-0.4-0.2-1,0-1.3,0.4
			c-0.6,0.7-0.3,2.2,0.7,2.7c1,0.5,1.9,0.6,3,0.4c1.2-0.2,2.3-0.7,3.2-1.5c1.4-1.3,2.1-2.9,2.1-4.8c0-0.4-0.1-0.9-0.2-1.3
			c-0.2-1.2-0.9-2-1.9-2.7c-0.2-0.2-0.5-0.3-0.8-0.4c0.2-0.2,0.4-0.4,0.6-0.6c1.1-1.1,2.2-2.3,3.1-3.6c0.9-1.4,1.6-2.8,1.5-4.5
			c0-0.7-0.2-1.3-0.3-2c-0.1-0.3-0.2-0.6-0.4-0.9c-0.1,0-0.1,0-0.2,0.1c0,0.2,0.1,0.5,0.1,0.7c0.4,1.3,0.3,2.5-0.1,3.7
			C73.3,15.4,72.2,16.9,70.9,18.2z M56.3,34c0,0.5-0.1,1.1-0.2,1.6c-0.1,0.9-0.1,1.9-0.3,2.8c-0.4,1.8-0.9,3.6-2.5,4.9
			c-0.4,0.3-0.8,0.6-1.3,0.6c-0.4,0.1-0.9-0.2-1.1-0.6c-0.7-1.1-0.9-2.2-0.6-3.5c0.4-2.3,1.7-4,3.3-5.5c1-1,2-1.9,3-2.9
			C56.4,32.3,56.4,33.2,56.3,34z M57.9,28.9c0,0-0.1-0.1-0.1-0.1c0.2-0.6,0.4-1.2,0.7-1.7c0.5-0.9,0.9-1.8,1.5-2.6
			c0.8-1.1,1.8-1.9,3-2.5c1.4-0.7,2.9-1,4.5-1c0.1,0,0.3,0,0.5,0.1C64.5,23.7,61.2,26.3,57.9,28.9z"/>
		<path d="M71.5,52.7c-0.1-0.1-0.3-0.1-0.4-0.2c0.1-0.1,0.3-0.2,0.5-0.4c-0.2-0.1-0.4-0.2-0.5-0.2c0.2-0.3,0.4-0.5,0.6-0.7
			c0,0,0-0.1-0.1-0.1c-5.4,1.3-9.9-0.5-14.1-3.6c-0.1,0.4-0.1,0.4,0.4,0.9c1.5,1.7,3.2,3.2,5.4,4c-1.4-0.1-2.6-0.7-3.7-1.5
			c0,0-0.1,0.1-0.1,0.1c0.4,0.3,0.7,0.7,1.1,1c0,0,0,0.1-0.1,0.1c-1-0.3-2-0.7-3-1c0.2,0.3,0.4,0.5,0.7,0.6c1,0.6,2,1.1,3.2,1.4
			c0.5,0.1,1,0.2,1.5,0.3c0.9,0.2,1.7,0.4,2.6,0.4c0.8,0.1,1.6,0,2.4,0c1.2,0,2.4-0.4,3.5-0.8C71.5,53.1,71.6,52.8,71.5,52.7z"/>
		<path d="M75.2,72.1c-1,0.4-1.7,1.2-2.4,2.1c-0.4,0.4-0.8,0.8-1.4,0.7c-0.6-0.1-1.3,0-1.9,0c0,0,0,0.1-0.1,0.1
			c0.2,0.1,0.3,0.3,0.5,0.4c0.8,0.3,1.5,0.5,2.4,0.5c1.1,0,2.3,0,3.4,0c0.4,0,0.8,0.1,1.2,0.3c0.6,0.2,1.1,0.5,1.7,0.7
			c1.2,0.3,2.3,0.1,3.4-0.4c0.2-0.1,0.4-0.2,0.6-0.3c0,0,0-0.1,0-0.1c-0.3,0-0.6,0.1-0.9,0.2c-1.1,0.3-2.1,0.3-3.1-0.3
			c-1.3-0.9-2.8-1.3-4.4-1.2c-0.2,0-0.3,0-0.5,0c0.3-0.2,0.5-0.4,0.7-0.6c0.7-0.5,1.4-1,2.3-1c0.6,0,1.2,0,1.8,0
			c1.7,0,3.5-0.1,5.2-0.1c0.6,0,1.2,0.1,1.7,0.6c0,0,0.1,0,0.2,0.1c0-0.1,0-0.1-0.1-0.2c-0.5-0.8-1.3-1-2-1.1
			c-1-0.2-2.1-0.2-3.2-0.3c-0.7-0.1-1.5,0-2.2-0.2C77.1,71.6,76.1,71.7,75.2,72.1z"/>
		<path d="M90.2,85.2c-1.7,1.2-3.3,2.4-5,3.6c-0.9,0.6-2,1.1-3.1,1.2c-1.5,0.2-3.1,0.2-4.7-0.1c-1.5-0.3-2.8-1.1-4.2-1.7
			c-1.1-0.5-2.2-1.2-3.3-1.8c-0.5-0.3-1.1-0.4-1.6-0.5c0,0.1-0.1,0.1-0.1,0.2c0.1,0.1,0.1,0.1,0.2,0.2c0.4,0.3,0.9,0.6,1.3,0.9
			c1.8,1.1,3.4,2.4,5.3,3.2c1.2,0.6,2.5,0.8,3.8,1c1.2,0.1,2.5-0.1,3.7-0.4c1.4-0.4,2.7-1.1,3.8-2c1.1-0.9,2.2-1.9,3.3-2.9
			c0.5-0.4,1-0.8,1.4-1.2c0,0-0.1-0.1-0.1-0.1C90.7,84.9,90.4,85,90.2,85.2z"/>
		<path d="M66.2,39.7c1.3,0.6,2.6,1.3,3.8,2c0.9,0.5,1.7,1.1,2.6,1.6c0.6,0.4,1.2,0.9,1.8,1.4c0,0,0.1,0,0.1-0.1
			c-0.3-0.3-0.5-0.6-0.8-0.9c-1.3-1.4-2.8-2.5-4.4-3.6c-1.4-0.9-2.8-1.8-4.4-2.3c-0.7-0.2-1.4-0.4-2.2-0.6c-1.1-0.3-2.1-0.3-3.1,0.1
			c-0.2,0.1-0.4,0.3-0.6,0.5c0,0.1,0,0.1,0.1,0.2c0.2,0,0.4,0,0.5,0c0.3,0,0.6-0.1,0.9-0.1c0.7,0.1,1.4,0.2,2,0.4
			C63.8,38.7,65,39.2,66.2,39.7z"/>
		<path d="M84.9,79.1c-0.5,0.6-1.1,1.1-1.8,1.3c-0.8,0.2-1.6,0.3-2.5,0.3c-0.9,0-1.7-0.1-2.6-0.1c-1,0-1.8-0.5-2.5-1.3
			c-0.6-0.6-1.1-1.3-1.8-1.9c-0.4-0.3-0.8-0.8-1.5-0.7c0.1,0.2,0.1,0.3,0.2,0.5c0.6,0.8,1.3,1.7,1.9,2.5c1,1.5,2.4,2.1,4.1,2.2
			c0.8,0,1.6-0.1,2.4-0.3c0.6-0.1,1.2-0.2,1.7-0.3c0.7-0.1,1.3-0.3,1.7-0.8c0.5-0.6,1-1.2,1.5-1.8c0.2-0.3,0.5-0.6,0.7-0.8
			c0,0-0.1-0.1-0.1-0.1C85.8,78.2,85.3,78.6,84.9,79.1z"/>
		<path d="M66.3,48.5c1.9,0.4,3.7,0.9,5.4,1.9c0,0,0-0.1,0.1-0.1c-0.1-0.1-0.2-0.2-0.3-0.3c-0.9-0.6-1.7-1.3-2.7-1.7
			c-1.1-0.5-2.3-0.9-3.6-1.2c-0.8-0.2-1.6-0.1-2.5-0.1c-0.7,0-1.4,0.2-2,0.6c-0.1,0.1-0.2,0.2-0.3,0.4c0,0,0,0.1,0.1,0.1
			C62.5,47.9,64.4,48.1,66.3,48.5z"/>
		<path d="M82.6,75.5c0,0,0,0.1,0,0.1c0.7,0.1,1.4,0.2,2.1,0.4c0.8,0.2,1.7,0.4,2.5,0.4c0.9,0.1,1.8-0.3,2.6-0.6
			c0.1,0,0.3-0.3,0.2-0.4c-0.1-0.1-0.2-0.3-0.4-0.3c-0.9-0.1-1.8-0.1-2.7-0.1c-0.7,0-1.5,0-2.2,0.1C84,75.3,83.3,75.4,82.6,75.5z"/>
		<path d="M73.9,66.6c0.3,0.1,0.7,0.1,1,0.2c0.7,0.2,1.5,0.4,2.2,0.6c0.3,0.1,0.5,0.2,0.8,0.3c-0.5-1-1.2-1.7-2.3-2.1
			c-0.6-0.2-1.2-0.1-1.7,0.3C73.6,66.1,73.6,66.5,73.9,66.6z"/>
		<path d="M83.7,67.1c0.2-0.1,0.3-0.4,0.5-0.6c-0.2-0.1-0.5-0.3-0.7-0.4c-0.1,0-0.3,0-0.4,0c-0.9,0.1-1.4,0.8-2,1.4
			C82,67.5,82.9,67.6,83.7,67.1z"/>
	</g>
</g>
</svg>
